G04 #@! TF.GenerationSoftware,KiCad,Pcbnew,(5.0.2)-1*
G04 #@! TF.CreationDate,2019-04-19T06:38:29+02:00*
G04 #@! TF.ProjectId,n2adr,6e326164-722e-46b6-9963-61645f706362,E5b8*
G04 #@! TF.SameCoordinates,PX3dfd240PY3473bc0*
G04 #@! TF.FileFunction,Legend,Top*
G04 #@! TF.FilePolarity,Positive*
%FSLAX46Y46*%
G04 Gerber Fmt 4.6, Leading zero omitted, Abs format (unit mm)*
G04 Created by KiCad (PCBNEW (5.0.2)-1) date 19/04/2019 06:38:29*
%MOMM*%
%LPD*%
G01*
G04 APERTURE LIST*
%ADD10C,0.150000*%
%ADD11C,0.200000*%
%ADD12C,0.300000*%
%ADD13C,0.600000*%
%ADD14C,0.100000*%
%ADD15C,0.120000*%
G04 APERTURE END LIST*
D10*
X39000000Y-50000000D02*
X58000000Y-50000000D01*
X39000000Y-48000000D02*
X39000000Y-50000000D01*
X31000000Y-48000000D02*
X39000000Y-48000000D01*
X31000000Y-50000000D02*
X31000000Y-48000000D01*
X25000000Y-50000000D02*
X31000000Y-50000000D01*
X25000000Y-48000000D02*
X25000000Y-50000000D01*
X17000000Y-48000000D02*
X25000000Y-48000000D01*
X17000000Y-50000000D02*
X17000000Y-48000000D01*
X0Y-50000000D02*
X17000000Y-50000000D01*
X58000000Y-48000000D02*
X58000000Y-50000000D01*
X70000000Y-48000000D02*
X58000000Y-48000000D01*
X70000000Y-50000000D02*
X70000000Y-48000000D01*
X100000000Y-50000000D02*
X70000000Y-50000000D01*
D11*
X9038809Y-26852380D02*
X9163809Y-25852380D01*
X9104285Y-26328571D02*
X9675714Y-26328571D01*
X9610238Y-26852380D02*
X9735238Y-25852380D01*
X10473333Y-26804761D02*
X10372142Y-26852380D01*
X10181666Y-26852380D01*
X10092380Y-26804761D01*
X10056666Y-26709523D01*
X10104285Y-26328571D01*
X10163809Y-26233333D01*
X10265000Y-26185714D01*
X10455476Y-26185714D01*
X10544761Y-26233333D01*
X10580476Y-26328571D01*
X10568571Y-26423809D01*
X10080476Y-26519047D01*
X10943571Y-26852380D02*
X11026904Y-26185714D01*
X11003095Y-26376190D02*
X11062619Y-26280952D01*
X11116190Y-26233333D01*
X11217380Y-26185714D01*
X11312619Y-26185714D01*
X11562619Y-26852380D02*
X11645952Y-26185714D01*
X11634047Y-26280952D02*
X11687619Y-26233333D01*
X11788809Y-26185714D01*
X11931666Y-26185714D01*
X12020952Y-26233333D01*
X12056666Y-26328571D01*
X11991190Y-26852380D01*
X12056666Y-26328571D02*
X12116190Y-26233333D01*
X12217380Y-26185714D01*
X12360238Y-26185714D01*
X12449523Y-26233333D01*
X12485238Y-26328571D01*
X12419761Y-26852380D01*
X13282857Y-26804761D02*
X13181666Y-26852380D01*
X12991190Y-26852380D01*
X12901904Y-26804761D01*
X12866190Y-26709523D01*
X12913809Y-26328571D01*
X12973333Y-26233333D01*
X13074523Y-26185714D01*
X13265000Y-26185714D01*
X13354285Y-26233333D01*
X13390000Y-26328571D01*
X13378095Y-26423809D01*
X12890000Y-26519047D01*
X13711428Y-26804761D02*
X13800714Y-26852380D01*
X13991190Y-26852380D01*
X14092380Y-26804761D01*
X14151904Y-26709523D01*
X14157857Y-26661904D01*
X14122142Y-26566666D01*
X14032857Y-26519047D01*
X13890000Y-26519047D01*
X13800714Y-26471428D01*
X13765000Y-26376190D01*
X13770952Y-26328571D01*
X13830476Y-26233333D01*
X13931666Y-26185714D01*
X14074523Y-26185714D01*
X14163809Y-26233333D01*
X15800714Y-26852380D02*
X15324523Y-26852380D01*
X15449523Y-25852380D01*
X16134047Y-26852380D02*
X16217380Y-26185714D01*
X16259047Y-25852380D02*
X16205476Y-25900000D01*
X16247142Y-25947619D01*
X16300714Y-25900000D01*
X16259047Y-25852380D01*
X16247142Y-25947619D01*
X16550714Y-26185714D02*
X16931666Y-26185714D01*
X16735238Y-25852380D02*
X16628095Y-26709523D01*
X16663809Y-26804761D01*
X16753095Y-26852380D01*
X16848333Y-26852380D01*
X17568571Y-26804761D02*
X17467380Y-26852380D01*
X17276904Y-26852380D01*
X17187619Y-26804761D01*
X17151904Y-26709523D01*
X17199523Y-26328571D01*
X17259047Y-26233333D01*
X17360238Y-26185714D01*
X17550714Y-26185714D01*
X17640000Y-26233333D01*
X17675714Y-26328571D01*
X17663809Y-26423809D01*
X17175714Y-26519047D01*
X18866190Y-25947619D02*
X18919761Y-25900000D01*
X19020952Y-25852380D01*
X19259047Y-25852380D01*
X19348333Y-25900000D01*
X19390000Y-25947619D01*
X19425714Y-26042857D01*
X19413809Y-26138095D01*
X19348333Y-26280952D01*
X18705476Y-26852380D01*
X19324523Y-26852380D01*
X20913809Y-26328571D02*
X20580476Y-26328571D01*
X20515000Y-26852380D02*
X20640000Y-25852380D01*
X21116190Y-25852380D01*
X21372142Y-26852380D02*
X21455476Y-26185714D01*
X21497142Y-25852380D02*
X21443571Y-25900000D01*
X21485238Y-25947619D01*
X21538809Y-25900000D01*
X21497142Y-25852380D01*
X21485238Y-25947619D01*
X21991190Y-26852380D02*
X21901904Y-26804761D01*
X21866190Y-26709523D01*
X21973333Y-25852380D01*
X22312619Y-26185714D02*
X22693571Y-26185714D01*
X22497142Y-25852380D02*
X22390000Y-26709523D01*
X22425714Y-26804761D01*
X22515000Y-26852380D01*
X22610238Y-26852380D01*
X23330476Y-26804761D02*
X23229285Y-26852380D01*
X23038809Y-26852380D01*
X22949523Y-26804761D01*
X22913809Y-26709523D01*
X22961428Y-26328571D01*
X23020952Y-26233333D01*
X23122142Y-26185714D01*
X23312619Y-26185714D01*
X23401904Y-26233333D01*
X23437619Y-26328571D01*
X23425714Y-26423809D01*
X22937619Y-26519047D01*
X23800714Y-26852380D02*
X23884047Y-26185714D01*
X23860238Y-26376190D02*
X23919761Y-26280952D01*
X23973333Y-26233333D01*
X24074523Y-26185714D01*
X24169761Y-26185714D01*
X24378095Y-26804761D02*
X24467380Y-26852380D01*
X24657857Y-26852380D01*
X24759047Y-26804761D01*
X24818571Y-26709523D01*
X24824523Y-26661904D01*
X24788809Y-26566666D01*
X24699523Y-26519047D01*
X24556666Y-26519047D01*
X24467380Y-26471428D01*
X24431666Y-26376190D01*
X24437619Y-26328571D01*
X24497142Y-26233333D01*
X24598333Y-26185714D01*
X24741190Y-26185714D01*
X24830476Y-26233333D01*
X13872142Y-28552380D02*
X13997142Y-27552380D01*
X13949523Y-27933333D02*
X14050714Y-27885714D01*
X14241190Y-27885714D01*
X14330476Y-27933333D01*
X14372142Y-27980952D01*
X14407857Y-28076190D01*
X14372142Y-28361904D01*
X14312619Y-28457142D01*
X14259047Y-28504761D01*
X14157857Y-28552380D01*
X13967380Y-28552380D01*
X13878095Y-28504761D01*
X14765000Y-27885714D02*
X14919761Y-28552380D01*
X15241190Y-27885714D02*
X14919761Y-28552380D01*
X14794761Y-28790476D01*
X14741190Y-28838095D01*
X14640000Y-28885714D01*
X16300714Y-28552380D02*
X16425714Y-27552380D01*
X16872142Y-28552380D01*
X16997142Y-27552380D01*
X17413809Y-27647619D02*
X17467380Y-27600000D01*
X17568571Y-27552380D01*
X17806666Y-27552380D01*
X17895952Y-27600000D01*
X17937619Y-27647619D01*
X17973333Y-27742857D01*
X17961428Y-27838095D01*
X17895952Y-27980952D01*
X17253095Y-28552380D01*
X17872142Y-28552380D01*
X18288809Y-28266666D02*
X18765000Y-28266666D01*
X18157857Y-28552380D02*
X18616190Y-27552380D01*
X18824523Y-28552380D01*
X19157857Y-28552380D02*
X19282857Y-27552380D01*
X19520952Y-27552380D01*
X19657857Y-27600000D01*
X19741190Y-27695238D01*
X19776904Y-27790476D01*
X19800714Y-27980952D01*
X19782857Y-28123809D01*
X19711428Y-28314285D01*
X19651904Y-28409523D01*
X19544761Y-28504761D01*
X19395952Y-28552380D01*
X19157857Y-28552380D01*
X20729285Y-28552380D02*
X20455476Y-28076190D01*
X20157857Y-28552380D02*
X20282857Y-27552380D01*
X20663809Y-27552380D01*
X20753095Y-27600000D01*
X20794761Y-27647619D01*
X20830476Y-27742857D01*
X20812619Y-27885714D01*
X20753095Y-27980952D01*
X20699523Y-28028571D01*
X20598333Y-28076190D01*
X20217380Y-28076190D01*
X8455476Y-29585714D02*
X8836428Y-29585714D01*
X8515000Y-30252380D02*
X8622142Y-29395238D01*
X8681666Y-29300000D01*
X8782857Y-29252380D01*
X8878095Y-29252380D01*
X9229285Y-30252380D02*
X9140000Y-30204761D01*
X9098333Y-30157142D01*
X9062619Y-30061904D01*
X9098333Y-29776190D01*
X9157857Y-29680952D01*
X9211428Y-29633333D01*
X9312619Y-29585714D01*
X9455476Y-29585714D01*
X9544761Y-29633333D01*
X9586428Y-29680952D01*
X9622142Y-29776190D01*
X9586428Y-30061904D01*
X9526904Y-30157142D01*
X9473333Y-30204761D01*
X9372142Y-30252380D01*
X9229285Y-30252380D01*
X9991190Y-30252380D02*
X10074523Y-29585714D01*
X10050714Y-29776190D02*
X10110238Y-29680952D01*
X10163809Y-29633333D01*
X10265000Y-29585714D01*
X10360238Y-29585714D01*
X10610238Y-30252380D02*
X10735238Y-29252380D01*
X10753095Y-29871428D02*
X10991190Y-30252380D01*
X11074523Y-29585714D02*
X10645952Y-29966666D01*
X11806666Y-30204761D02*
X11705476Y-30252380D01*
X11515000Y-30252380D01*
X11425714Y-30204761D01*
X11390000Y-30109523D01*
X11437619Y-29728571D01*
X11497142Y-29633333D01*
X11598333Y-29585714D01*
X11788809Y-29585714D01*
X11878095Y-29633333D01*
X11913809Y-29728571D01*
X11901904Y-29823809D01*
X11413809Y-29919047D01*
X12705476Y-30252380D02*
X12830476Y-29252380D01*
X12711428Y-30204761D02*
X12610238Y-30252380D01*
X12419761Y-30252380D01*
X12330476Y-30204761D01*
X12288809Y-30157142D01*
X12253095Y-30061904D01*
X12288809Y-29776190D01*
X12348333Y-29680952D01*
X12401904Y-29633333D01*
X12503095Y-29585714D01*
X12693571Y-29585714D01*
X12782857Y-29633333D01*
X13943571Y-30252380D02*
X14068571Y-29252380D01*
X14020952Y-29633333D02*
X14122142Y-29585714D01*
X14312619Y-29585714D01*
X14401904Y-29633333D01*
X14443571Y-29680952D01*
X14479285Y-29776190D01*
X14443571Y-30061904D01*
X14384047Y-30157142D01*
X14330476Y-30204761D01*
X14229285Y-30252380D01*
X14038809Y-30252380D01*
X13949523Y-30204761D01*
X14836428Y-29585714D02*
X14991190Y-30252380D01*
X15312619Y-29585714D02*
X14991190Y-30252380D01*
X14866190Y-30490476D01*
X14812619Y-30538095D01*
X14711428Y-30585714D01*
X16312619Y-29585714D02*
X16693571Y-29585714D01*
X16372142Y-30252380D02*
X16479285Y-29395238D01*
X16538809Y-29300000D01*
X16640000Y-29252380D01*
X16735238Y-29252380D01*
X17497142Y-29252380D02*
X17306666Y-29252380D01*
X17205476Y-29300000D01*
X17151904Y-29347619D01*
X17038809Y-29490476D01*
X16967380Y-29680952D01*
X16919761Y-30061904D01*
X16955476Y-30157142D01*
X16997142Y-30204761D01*
X17086428Y-30252380D01*
X17276904Y-30252380D01*
X17378095Y-30204761D01*
X17431666Y-30157142D01*
X17491190Y-30061904D01*
X17520952Y-29823809D01*
X17485238Y-29728571D01*
X17443571Y-29680952D01*
X17354285Y-29633333D01*
X17163809Y-29633333D01*
X17062619Y-29680952D01*
X17009047Y-29728571D01*
X16949523Y-29823809D01*
X17895952Y-30252380D02*
X17979285Y-29585714D01*
X18020952Y-29252380D02*
X17967380Y-29300000D01*
X18009047Y-29347619D01*
X18062619Y-29300000D01*
X18020952Y-29252380D01*
X18009047Y-29347619D01*
X18312619Y-29585714D02*
X18693571Y-29585714D01*
X18497142Y-29252380D02*
X18390000Y-30109523D01*
X18425714Y-30204761D01*
X18515000Y-30252380D01*
X18610238Y-30252380D01*
X19455476Y-29585714D02*
X19372142Y-30252380D01*
X19026904Y-29585714D02*
X18961428Y-30109523D01*
X18997142Y-30204761D01*
X19086428Y-30252380D01*
X19229285Y-30252380D01*
X19330476Y-30204761D01*
X19384047Y-30157142D01*
X20848333Y-30633333D02*
X20806666Y-30585714D01*
X20729285Y-30442857D01*
X20693571Y-30347619D01*
X20663809Y-30204761D01*
X20645952Y-29966666D01*
X20669761Y-29776190D01*
X20747142Y-29538095D01*
X20812619Y-29395238D01*
X20872142Y-29300000D01*
X20985238Y-29157142D01*
X21038809Y-29109523D01*
X21342380Y-29347619D02*
X21395952Y-29300000D01*
X21497142Y-29252380D01*
X21735238Y-29252380D01*
X21824523Y-29300000D01*
X21866190Y-29347619D01*
X21901904Y-29442857D01*
X21890000Y-29538095D01*
X21824523Y-29680952D01*
X21181666Y-30252380D01*
X21800714Y-30252380D01*
X22544761Y-29252380D02*
X22640000Y-29252380D01*
X22729285Y-29300000D01*
X22770952Y-29347619D01*
X22806666Y-29442857D01*
X22830476Y-29633333D01*
X22800714Y-29871428D01*
X22729285Y-30061904D01*
X22669761Y-30157142D01*
X22616190Y-30204761D01*
X22515000Y-30252380D01*
X22419761Y-30252380D01*
X22330476Y-30204761D01*
X22288809Y-30157142D01*
X22253095Y-30061904D01*
X22229285Y-29871428D01*
X22259047Y-29633333D01*
X22330476Y-29442857D01*
X22390000Y-29347619D01*
X22443571Y-29300000D01*
X22544761Y-29252380D01*
X23705476Y-30252380D02*
X23134047Y-30252380D01*
X23419761Y-30252380D02*
X23544761Y-29252380D01*
X23431666Y-29395238D01*
X23324523Y-29490476D01*
X23223333Y-29538095D01*
X24181666Y-30252380D02*
X24372142Y-30252380D01*
X24473333Y-30204761D01*
X24526904Y-30157142D01*
X24640000Y-30014285D01*
X24711428Y-29823809D01*
X24759047Y-29442857D01*
X24723333Y-29347619D01*
X24681666Y-29300000D01*
X24592380Y-29252380D01*
X24401904Y-29252380D01*
X24300714Y-29300000D01*
X24247142Y-29347619D01*
X24187619Y-29442857D01*
X24157857Y-29680952D01*
X24193571Y-29776190D01*
X24235238Y-29823809D01*
X24324523Y-29871428D01*
X24515000Y-29871428D01*
X24616190Y-29823809D01*
X24669761Y-29776190D01*
X24729285Y-29680952D01*
X24943571Y-30633333D02*
X24997142Y-30585714D01*
X25110238Y-30442857D01*
X25169761Y-30347619D01*
X25235238Y-30204761D01*
X25312619Y-29966666D01*
X25336428Y-29776190D01*
X25318571Y-29538095D01*
X25288809Y-29395238D01*
X25253095Y-29300000D01*
X25175714Y-29157142D01*
X25134047Y-29109523D01*
D10*
X0Y-50000000D02*
X0Y0D01*
X100000000Y0D02*
X100000000Y-50000000D01*
X0Y0D02*
X100000000Y0D01*
D12*
G04 #@! TO.C,CN3*
X32900000Y-5500000D02*
X31200000Y-5500000D01*
X31200000Y-5500000D02*
X31200000Y-6600000D01*
X31200000Y-6600000D02*
X32800000Y-6600000D01*
X32800000Y-6600000D02*
X32800000Y-5700000D01*
X32800000Y-5700000D02*
X31400000Y-5700000D01*
X31400000Y-5700000D02*
X31400000Y-6400000D01*
X31400000Y-6400000D02*
X32600000Y-6400000D01*
X32600000Y-6400000D02*
X32600000Y-5900000D01*
X32600000Y-5900000D02*
X31600000Y-5900000D01*
X31600000Y-5900000D02*
X31600000Y-6200000D01*
X31600000Y-6200000D02*
X32300000Y-6200000D01*
X32300000Y-6200000D02*
X32300000Y-6000000D01*
X32000000Y-5550000D02*
X32000000Y-6550000D01*
D13*
X32000000Y-5300000D02*
X32000000Y-3550000D01*
D11*
X30000000Y-11050000D02*
X30000000Y-12050000D01*
X34000000Y-11050000D02*
X34000000Y-12050000D01*
X34000000Y-7050000D02*
X34000000Y-11050000D01*
X34000000Y-11050000D02*
X30000000Y-11050000D01*
X30000000Y-11050000D02*
X30000000Y-7050000D01*
X31000000Y-5300000D02*
X33000000Y-5300000D01*
X33000000Y-5300000D02*
X33000000Y-6800000D01*
X33000000Y-6800000D02*
X31000000Y-6800000D01*
X31000000Y-6800000D02*
X31000000Y-5300000D01*
D14*
G04 #@! TO.C,CN1*
X16000000Y-37950000D02*
X16000000Y-49850000D01*
X16000000Y-49850000D02*
X4000000Y-49850000D01*
X4000000Y-49850000D02*
X4000000Y-37950000D01*
G04 #@! TO.C,K3*
X47250000Y-8800000D02*
X54750000Y-8800000D01*
X54750000Y-8800000D02*
X54750000Y-21200000D01*
X54750000Y-21200000D02*
X54750000Y-23750000D01*
X54750000Y-23750000D02*
X47250000Y-23750000D01*
X47250000Y-23750000D02*
X47250000Y-8800000D01*
G04 #@! TO.C,K4*
X34250000Y-8800000D02*
X41750000Y-8800000D01*
X41750000Y-8800000D02*
X41750000Y-21200000D01*
X41750000Y-21200000D02*
X41750000Y-23750000D01*
X41750000Y-23750000D02*
X34250000Y-23750000D01*
X34250000Y-23750000D02*
X34250000Y-8800000D01*
D10*
G04 #@! TO.C,L2*
X72279600Y-30727200D02*
X72279600Y-27272800D01*
X68520400Y-30727200D02*
X68520400Y-27272800D01*
G04 #@! TO.C,C1*
X74150000Y-6800000D02*
X74150000Y-5800000D01*
X72450000Y-5800000D02*
X72450000Y-6800000D01*
G04 #@! TO.C,C2*
X67100000Y-5950000D02*
X68100000Y-5950000D01*
X68100000Y-4250000D02*
X67100000Y-4250000D01*
G04 #@! TO.C,C4*
X52800000Y-8350000D02*
X53800000Y-8350000D01*
X53800000Y-6650000D02*
X52800000Y-6650000D01*
G04 #@! TO.C,C8*
X61000000Y-33025000D02*
X63000000Y-33025000D01*
X63000000Y-30975000D02*
X61000000Y-30975000D01*
G04 #@! TO.C,C9*
X71500000Y-33225000D02*
X69500000Y-33225000D01*
X69500000Y-35275000D02*
X71500000Y-35275000D01*
G04 #@! TO.C,C10*
X67000000Y-22775000D02*
X65000000Y-22775000D01*
X65000000Y-24825000D02*
X67000000Y-24825000D01*
G04 #@! TO.C,L3*
X85100000Y-41200000D02*
X85100000Y-35200000D01*
X77100000Y-41200000D02*
X77100000Y-35200000D01*
X87100000Y-41200000D02*
X75100000Y-41200000D01*
X75100000Y-41200000D02*
X75100000Y-35200000D01*
X75100000Y-35200000D02*
X87100000Y-35200000D01*
X87100000Y-35200000D02*
X87100000Y-41200000D01*
G04 #@! TO.C,R2*
X92500000Y-35350000D02*
X93500000Y-35350000D01*
X93500000Y-33650000D02*
X92500000Y-33650000D01*
G04 #@! TO.C,R3*
X93500000Y-41150000D02*
X92500000Y-41150000D01*
X92500000Y-42850000D02*
X93500000Y-42850000D01*
G04 #@! TO.C,R6*
X92500000Y-40350000D02*
X93500000Y-40350000D01*
X93500000Y-38650000D02*
X92500000Y-38650000D01*
G04 #@! TO.C,R7*
X93500000Y-36150000D02*
X92500000Y-36150000D01*
X92500000Y-37850000D02*
X93500000Y-37850000D01*
G04 #@! TO.C,C21*
X95525000Y-16200000D02*
X95525000Y-14200000D01*
X93475000Y-14200000D02*
X93475000Y-16200000D01*
G04 #@! TO.C,C22*
X93475000Y-7000000D02*
X93475000Y-9000000D01*
X95525000Y-9000000D02*
X95525000Y-7000000D01*
G04 #@! TO.C,C23*
X79000000Y-5425000D02*
X81000000Y-5425000D01*
X81000000Y-3375000D02*
X79000000Y-3375000D01*
G04 #@! TO.C,C32*
X48750000Y-34775000D02*
X50750000Y-34775000D01*
X50750000Y-32725000D02*
X48750000Y-32725000D01*
G04 #@! TO.C,C33*
X33025000Y-23500000D02*
X33025000Y-21500000D01*
X30975000Y-21500000D02*
X30975000Y-23500000D01*
G04 #@! TO.C,C35*
X45500000Y-29275000D02*
X47500000Y-29275000D01*
X47500000Y-27225000D02*
X45500000Y-27225000D01*
G04 #@! TO.C,C36*
X36000000Y-27025000D02*
X38000000Y-27025000D01*
X38000000Y-24975000D02*
X36000000Y-24975000D01*
G04 #@! TO.C,C37*
X48750000Y-31775000D02*
X50750000Y-31775000D01*
X50750000Y-29725000D02*
X48750000Y-29725000D01*
G04 #@! TO.C,C38*
X31475000Y-33250000D02*
X31475000Y-35250000D01*
X33525000Y-35250000D02*
X33525000Y-33250000D01*
G04 #@! TO.C,C40*
X53275000Y-27750000D02*
X53275000Y-25750000D01*
X51225000Y-25750000D02*
X51225000Y-27750000D01*
G04 #@! TO.C,C41*
X37000000Y-31025000D02*
X39000000Y-31025000D01*
X39000000Y-28975000D02*
X37000000Y-28975000D01*
G04 #@! TO.C,C42*
X49000000Y-24225000D02*
X47000000Y-24225000D01*
X47000000Y-26275000D02*
X49000000Y-26275000D01*
G04 #@! TO.C,C43*
X37900000Y-36475000D02*
X35900000Y-36475000D01*
X35900000Y-38525000D02*
X37900000Y-38525000D01*
G04 #@! TO.C,L10*
X33475000Y-29500000D02*
X33475000Y-27500000D01*
X30525000Y-27500000D02*
X30525000Y-29500000D01*
G04 #@! TO.C,L13*
X38000000Y-32525000D02*
X36000000Y-32525000D01*
X36000000Y-35475000D02*
X38000000Y-35475000D01*
G04 #@! TO.C,L1*
X61072800Y-30279600D02*
X64527200Y-30279600D01*
X61072800Y-26520400D02*
X64527200Y-26520400D01*
G04 #@! TO.C,L5*
X92379600Y-14227200D02*
X92379600Y-10772800D01*
X88620400Y-14227200D02*
X88620400Y-10772800D01*
G04 #@! TO.C,L6*
X89227200Y-3120400D02*
X85772800Y-3120400D01*
X89227200Y-6879600D02*
X85772800Y-6879600D01*
G04 #@! TO.C,L9*
X58379600Y-31227200D02*
X58379600Y-27772800D01*
X54620400Y-31227200D02*
X54620400Y-27772800D01*
G04 #@! TO.C,L12*
X55525000Y-21000000D02*
X55525000Y-23000000D01*
X58475000Y-23000000D02*
X58475000Y-21000000D01*
G04 #@! TO.C,C50*
X52450000Y-42400000D02*
X52450000Y-41400000D01*
X50750000Y-41400000D02*
X50750000Y-42400000D01*
G04 #@! TO.C,C47*
X92850000Y-23000000D02*
X92850000Y-22000000D01*
X91150000Y-22000000D02*
X91150000Y-23000000D01*
G04 #@! TO.C,C48*
X94650000Y-25000000D02*
X94650000Y-26000000D01*
X96350000Y-26000000D02*
X96350000Y-25000000D01*
G04 #@! TO.C,C49*
X92850000Y-28500000D02*
X92850000Y-27500000D01*
X91150000Y-27500000D02*
X91150000Y-28500000D01*
G04 #@! TO.C,L4*
X94650000Y-29500000D02*
X94650000Y-30500000D01*
X96350000Y-30500000D02*
X96350000Y-29500000D01*
G04 #@! TO.C,L15*
X96350000Y-21500000D02*
X96350000Y-20500000D01*
X94650000Y-20500000D02*
X94650000Y-21500000D01*
G04 #@! TO.C,R1*
X93950000Y-45500000D02*
X93950000Y-46500000D01*
X95650000Y-46500000D02*
X95650000Y-45500000D01*
D14*
G04 #@! TO.C,K1*
X72400000Y-16150000D02*
X72400000Y-8650000D01*
X72400000Y-8650000D02*
X84800000Y-8650000D01*
X84800000Y-8650000D02*
X87350000Y-8650000D01*
X87350000Y-8650000D02*
X87350000Y-16150000D01*
X87350000Y-16150000D02*
X72400000Y-16150000D01*
G04 #@! TO.C,K2*
X60250000Y-6800000D02*
X67750000Y-6800000D01*
X67750000Y-6800000D02*
X67750000Y-19200000D01*
X67750000Y-19200000D02*
X67750000Y-21750000D01*
X67750000Y-21750000D02*
X60250000Y-21750000D01*
X60250000Y-21750000D02*
X60250000Y-6800000D01*
G04 #@! TO.C,K5*
X21250000Y-8800000D02*
X28750000Y-8800000D01*
X28750000Y-8800000D02*
X28750000Y-21200000D01*
X28750000Y-21200000D02*
X28750000Y-23750000D01*
X28750000Y-23750000D02*
X21250000Y-23750000D01*
X21250000Y-23750000D02*
X21250000Y-8800000D01*
G04 #@! TO.C,K6*
X8250000Y-8800000D02*
X15750000Y-8800000D01*
X15750000Y-8800000D02*
X15750000Y-21200000D01*
X15750000Y-21200000D02*
X15750000Y-23750000D01*
X15750000Y-23750000D02*
X8250000Y-23750000D01*
X8250000Y-23750000D02*
X8250000Y-8800000D01*
G04 #@! TO.C,K7*
X89800000Y-21450000D02*
X89800000Y-28950000D01*
X89800000Y-28950000D02*
X77400000Y-28950000D01*
X77400000Y-28950000D02*
X74850000Y-28950000D01*
X74850000Y-28950000D02*
X74850000Y-21450000D01*
X74850000Y-21450000D02*
X89800000Y-21450000D01*
D15*
G04 #@! TO.C,CN2*
X58758000Y-2464000D02*
X58758000Y196000D01*
X10438000Y-2464000D02*
X58758000Y-2464000D01*
X10438000Y196000D02*
X58758000Y196000D01*
X10438000Y-2464000D02*
X10438000Y196000D01*
X9168000Y-2464000D02*
X7838000Y-2464000D01*
X7838000Y-2464000D02*
X7838000Y-1134000D01*
D10*
G04 #@! TO.C,RV1*
X85250000Y-48500000D02*
X85250000Y-43500000D01*
X85250000Y-43500000D02*
X89750000Y-43500000D01*
X89750000Y-43500000D02*
X89750000Y-48500000D01*
X89750000Y-48500000D02*
X85250000Y-48500000D01*
D15*
G04 #@! TO.C,D3*
X36550000Y-4400000D02*
X36550000Y-6400000D01*
X36550000Y-6400000D02*
X40450000Y-6400000D01*
X36550000Y-4400000D02*
X40450000Y-4400000D01*
D10*
G04 #@! TO.C,FB1*
X52400000Y-2850000D02*
X51400000Y-2850000D01*
X51400000Y-4550000D02*
X52400000Y-4550000D01*
D11*
G04 #@! TO.C,J1*
X30500000Y-37835786D02*
X31560660Y-38896447D01*
X29085786Y-39250000D02*
X30500000Y-37835786D01*
X30146447Y-40310660D02*
X29085786Y-39250000D01*
X31560660Y-38896447D02*
X30146447Y-40310660D01*
X28201903Y-34123476D02*
X31030330Y-36951903D01*
X25373476Y-36951903D02*
X28201903Y-34123476D01*
X28201903Y-39780330D02*
X25373476Y-36951903D01*
X25373476Y-36951903D02*
X24666369Y-36244796D01*
X28201903Y-34123476D02*
X27494796Y-33416369D01*
D13*
X30853553Y-39603553D02*
X32090990Y-40840990D01*
D12*
X30676777Y-39426777D02*
X29969670Y-38719670D01*
X30005025Y-39179289D02*
X30146447Y-39320711D01*
X30500000Y-38684315D02*
X30005025Y-39179289D01*
X30712132Y-38896447D02*
X30500000Y-38684315D01*
X30005025Y-39603553D02*
X30712132Y-38896447D01*
X29651472Y-39250000D02*
X30005025Y-39603553D01*
X30500000Y-38401472D02*
X29651472Y-39250000D01*
X30994975Y-38896447D02*
X30500000Y-38401472D01*
X30005025Y-39886396D02*
X30994975Y-38896447D01*
X29368629Y-39250000D02*
X30005025Y-39886396D01*
X30500000Y-38118629D02*
X29368629Y-39250000D01*
X31277817Y-38896447D02*
X30500000Y-38118629D01*
X30075736Y-40098528D02*
X31277817Y-38896447D01*
G04 #@! TO.C,J2*
X20100000Y-41300000D02*
X21800000Y-41300000D01*
X21800000Y-41300000D02*
X21800000Y-40200000D01*
X21800000Y-40200000D02*
X20200000Y-40200000D01*
X20200000Y-40200000D02*
X20200000Y-41100000D01*
X20200000Y-41100000D02*
X21600000Y-41100000D01*
X21600000Y-41100000D02*
X21600000Y-40400000D01*
X21600000Y-40400000D02*
X20400000Y-40400000D01*
X20400000Y-40400000D02*
X20400000Y-40900000D01*
X20400000Y-40900000D02*
X21400000Y-40900000D01*
X21400000Y-40900000D02*
X21400000Y-40600000D01*
X21400000Y-40600000D02*
X20700000Y-40600000D01*
X20700000Y-40600000D02*
X20700000Y-40800000D01*
X21000000Y-41250000D02*
X21000000Y-40250000D01*
D13*
X21000000Y-41500000D02*
X21000000Y-43250000D01*
D11*
X23000000Y-35750000D02*
X23000000Y-34750000D01*
X19000000Y-35750000D02*
X19000000Y-34750000D01*
X19000000Y-39750000D02*
X19000000Y-35750000D01*
X19000000Y-35750000D02*
X23000000Y-35750000D01*
X23000000Y-35750000D02*
X23000000Y-39750000D01*
X22000000Y-41500000D02*
X20000000Y-41500000D01*
X20000000Y-41500000D02*
X20000000Y-40000000D01*
X20000000Y-40000000D02*
X22000000Y-40000000D01*
X22000000Y-40000000D02*
X22000000Y-41500000D01*
D12*
G04 #@! TO.C,CN5*
X20648528Y-7624264D02*
X19446447Y-6422183D01*
X19446447Y-6422183D02*
X18668629Y-7200000D01*
X18668629Y-7200000D02*
X19800000Y-8331371D01*
X19800000Y-8331371D02*
X20436396Y-7694975D01*
X20436396Y-7694975D02*
X19446447Y-6705025D01*
X19446447Y-6705025D02*
X18951472Y-7200000D01*
X18951472Y-7200000D02*
X19800000Y-8048528D01*
X19800000Y-8048528D02*
X20153553Y-7694975D01*
X20153553Y-7694975D02*
X19446447Y-6987868D01*
X19446447Y-6987868D02*
X19234315Y-7200000D01*
X19234315Y-7200000D02*
X19729289Y-7694975D01*
X19729289Y-7694975D02*
X19870711Y-7553553D01*
X19976777Y-7023223D02*
X19269670Y-7730330D01*
D13*
X20153553Y-6846447D02*
X21390990Y-5609010D01*
D11*
X21730402Y-7065650D02*
X18901974Y-9894077D01*
X19418162Y-10410265D02*
X16589735Y-7581838D01*
X17105923Y-8098026D02*
X19934350Y-5269598D01*
X19446447Y-6139340D02*
X20860660Y-7553553D01*
X20860660Y-7553553D02*
X19800000Y-8614214D01*
X19800000Y-8614214D02*
X18385786Y-7200000D01*
X18385786Y-7200000D02*
X19446447Y-6139340D01*
G04 #@! TD*
D14*
G04 #@! TO.C,K3*
X54415000Y-9920000D02*
G75*
G03X54415000Y-9920000I-875000J0D01*
G01*
X54415000Y-15000000D02*
G75*
G03X54415000Y-15000000I-875000J0D01*
G01*
X54415000Y-17540000D02*
G75*
G03X54415000Y-17540000I-875000J0D01*
G01*
X54415000Y-20080000D02*
G75*
G03X54415000Y-20080000I-875000J0D01*
G01*
X49335000Y-20080000D02*
G75*
G03X49335000Y-20080000I-875000J0D01*
G01*
X49335000Y-17540000D02*
G75*
G03X49335000Y-17540000I-875000J0D01*
G01*
X49335000Y-15000000D02*
G75*
G03X49335000Y-15000000I-875000J0D01*
G01*
X49335000Y-9920000D02*
G75*
G03X49335000Y-9920000I-875000J0D01*
G01*
G04 #@! TD*
G04 #@! TO.C,K4*
X41415000Y-9920000D02*
G75*
G03X41415000Y-9920000I-875000J0D01*
G01*
X41415000Y-15000000D02*
G75*
G03X41415000Y-15000000I-875000J0D01*
G01*
X41415000Y-17540000D02*
G75*
G03X41415000Y-17540000I-875000J0D01*
G01*
X41415000Y-20080000D02*
G75*
G03X41415000Y-20080000I-875000J0D01*
G01*
X36335000Y-20080000D02*
G75*
G03X36335000Y-20080000I-875000J0D01*
G01*
X36335000Y-17540000D02*
G75*
G03X36335000Y-17540000I-875000J0D01*
G01*
X36335000Y-15000000D02*
G75*
G03X36335000Y-15000000I-875000J0D01*
G01*
X36335000Y-9920000D02*
G75*
G03X36335000Y-9920000I-875000J0D01*
G01*
G04 #@! TD*
G04 #@! TO.C,JP1*
X82400010Y-43300000D02*
G75*
G03X82400010Y-43300000I-1300010J0D01*
G01*
X82400010Y-33140000D02*
G75*
G03X82400010Y-33140000I-1300010J0D01*
G01*
G04 #@! TD*
G04 #@! TO.C,L3*
X79050000Y-39050000D02*
X79050000Y-41150000D01*
X81150000Y-41150000D01*
X81150000Y-39050000D01*
X79050000Y-39050000D01*
X81050000Y-35250000D02*
X81050000Y-37350000D01*
X83150000Y-37350000D01*
X83150000Y-35250000D01*
X81050000Y-35250000D01*
X81050000Y-39050000D02*
X81050000Y-41150000D01*
X83150000Y-41150000D01*
X83150000Y-39050000D01*
X81050000Y-39050000D01*
X79050000Y-35250000D02*
X79050000Y-37350000D01*
X81150000Y-37350000D01*
X81150000Y-35250000D01*
X79050000Y-35250000D01*
G04 #@! TD*
G04 #@! TO.C,K1*
X74395000Y-9860000D02*
G75*
G03X74395000Y-9860000I-875000J0D01*
G01*
X79475000Y-9860000D02*
G75*
G03X79475000Y-9860000I-875000J0D01*
G01*
X82015000Y-9860000D02*
G75*
G03X82015000Y-9860000I-875000J0D01*
G01*
X84555000Y-9860000D02*
G75*
G03X84555000Y-9860000I-875000J0D01*
G01*
X84555000Y-14940000D02*
G75*
G03X84555000Y-14940000I-875000J0D01*
G01*
X82015000Y-14940000D02*
G75*
G03X82015000Y-14940000I-875000J0D01*
G01*
X79475000Y-14940000D02*
G75*
G03X79475000Y-14940000I-875000J0D01*
G01*
X74395000Y-14940000D02*
G75*
G03X74395000Y-14940000I-875000J0D01*
G01*
G04 #@! TD*
G04 #@! TO.C,K2*
X67415000Y-7920000D02*
G75*
G03X67415000Y-7920000I-875000J0D01*
G01*
X67415000Y-13000000D02*
G75*
G03X67415000Y-13000000I-875000J0D01*
G01*
X67415000Y-15540000D02*
G75*
G03X67415000Y-15540000I-875000J0D01*
G01*
X67415000Y-18080000D02*
G75*
G03X67415000Y-18080000I-875000J0D01*
G01*
X62335000Y-18080000D02*
G75*
G03X62335000Y-18080000I-875000J0D01*
G01*
X62335000Y-15540000D02*
G75*
G03X62335000Y-15540000I-875000J0D01*
G01*
X62335000Y-13000000D02*
G75*
G03X62335000Y-13000000I-875000J0D01*
G01*
X62335000Y-7920000D02*
G75*
G03X62335000Y-7920000I-875000J0D01*
G01*
G04 #@! TD*
G04 #@! TO.C,K5*
X28415000Y-9920000D02*
G75*
G03X28415000Y-9920000I-875000J0D01*
G01*
X28415000Y-15000000D02*
G75*
G03X28415000Y-15000000I-875000J0D01*
G01*
X28415000Y-17540000D02*
G75*
G03X28415000Y-17540000I-875000J0D01*
G01*
X28415000Y-20080000D02*
G75*
G03X28415000Y-20080000I-875000J0D01*
G01*
X23335000Y-20080000D02*
G75*
G03X23335000Y-20080000I-875000J0D01*
G01*
X23335000Y-17540000D02*
G75*
G03X23335000Y-17540000I-875000J0D01*
G01*
X23335000Y-15000000D02*
G75*
G03X23335000Y-15000000I-875000J0D01*
G01*
X23335000Y-9920000D02*
G75*
G03X23335000Y-9920000I-875000J0D01*
G01*
G04 #@! TD*
G04 #@! TO.C,K6*
X15415000Y-9920000D02*
G75*
G03X15415000Y-9920000I-875000J0D01*
G01*
X15415000Y-15000000D02*
G75*
G03X15415000Y-15000000I-875000J0D01*
G01*
X15415000Y-17540000D02*
G75*
G03X15415000Y-17540000I-875000J0D01*
G01*
X15415000Y-20080000D02*
G75*
G03X15415000Y-20080000I-875000J0D01*
G01*
X10335000Y-20080000D02*
G75*
G03X10335000Y-20080000I-875000J0D01*
G01*
X10335000Y-17540000D02*
G75*
G03X10335000Y-17540000I-875000J0D01*
G01*
X10335000Y-15000000D02*
G75*
G03X10335000Y-15000000I-875000J0D01*
G01*
X10335000Y-9920000D02*
G75*
G03X10335000Y-9920000I-875000J0D01*
G01*
G04 #@! TD*
G04 #@! TO.C,K7*
X89555000Y-27740000D02*
G75*
G03X89555000Y-27740000I-875000J0D01*
G01*
X84475000Y-27740000D02*
G75*
G03X84475000Y-27740000I-875000J0D01*
G01*
X81935000Y-27740000D02*
G75*
G03X81935000Y-27740000I-875000J0D01*
G01*
X79395000Y-27740000D02*
G75*
G03X79395000Y-27740000I-875000J0D01*
G01*
X79395000Y-22660000D02*
G75*
G03X79395000Y-22660000I-875000J0D01*
G01*
X81935000Y-22660000D02*
G75*
G03X81935000Y-22660000I-875000J0D01*
G01*
X84475000Y-22660000D02*
G75*
G03X84475000Y-22660000I-875000J0D01*
G01*
X89555000Y-22660000D02*
G75*
G03X89555000Y-22660000I-875000J0D01*
G01*
G04 #@! TD*
G04 #@! TO.C,CN1*
D10*
X3457142Y-48340476D02*
X3504761Y-48388095D01*
X3552380Y-48530952D01*
X3552380Y-48626190D01*
X3504761Y-48769047D01*
X3409523Y-48864285D01*
X3314285Y-48911904D01*
X3123809Y-48959523D01*
X2980952Y-48959523D01*
X2790476Y-48911904D01*
X2695238Y-48864285D01*
X2600000Y-48769047D01*
X2552380Y-48626190D01*
X2552380Y-48530952D01*
X2600000Y-48388095D01*
X2647619Y-48340476D01*
X3552380Y-47911904D02*
X2552380Y-47911904D01*
X3552380Y-47340476D01*
X2552380Y-47340476D01*
X3552380Y-46340476D02*
X3552380Y-46911904D01*
X3552380Y-46626190D02*
X2552380Y-46626190D01*
X2695238Y-46721428D01*
X2790476Y-46816666D01*
X2838095Y-46911904D01*
G04 #@! TO.C,K3*
D14*
X47259523Y-8411904D02*
X47259523Y-7611904D01*
X47716666Y-8411904D02*
X47373809Y-7954761D01*
X47716666Y-7611904D02*
X47259523Y-8069047D01*
X47983333Y-7611904D02*
X48478571Y-7611904D01*
X48211904Y-7916666D01*
X48326190Y-7916666D01*
X48402380Y-7954761D01*
X48440476Y-7992857D01*
X48478571Y-8069047D01*
X48478571Y-8259523D01*
X48440476Y-8335714D01*
X48402380Y-8373809D01*
X48326190Y-8411904D01*
X48097619Y-8411904D01*
X48021428Y-8373809D01*
X47983333Y-8335714D01*
G04 #@! TO.C,K4*
X37059523Y-8511904D02*
X37059523Y-7711904D01*
X37516666Y-8511904D02*
X37173809Y-8054761D01*
X37516666Y-7711904D02*
X37059523Y-8169047D01*
X38202380Y-7978571D02*
X38202380Y-8511904D01*
X38011904Y-7673809D02*
X37821428Y-8245238D01*
X38316666Y-8245238D01*
G04 #@! TO.C,L2*
X71066666Y-24961904D02*
X70685714Y-24961904D01*
X70685714Y-24161904D01*
X71295238Y-24238095D02*
X71333333Y-24200000D01*
X71409523Y-24161904D01*
X71600000Y-24161904D01*
X71676190Y-24200000D01*
X71714285Y-24238095D01*
X71752380Y-24314285D01*
X71752380Y-24390476D01*
X71714285Y-24504761D01*
X71257142Y-24961904D01*
X71752380Y-24961904D01*
G04 #@! TO.C,C1*
X71885714Y-6433333D02*
X71923809Y-6471428D01*
X71961904Y-6585714D01*
X71961904Y-6661904D01*
X71923809Y-6776190D01*
X71847619Y-6852380D01*
X71771428Y-6890476D01*
X71619047Y-6928571D01*
X71504761Y-6928571D01*
X71352380Y-6890476D01*
X71276190Y-6852380D01*
X71200000Y-6776190D01*
X71161904Y-6661904D01*
X71161904Y-6585714D01*
X71200000Y-6471428D01*
X71238095Y-6433333D01*
X71961904Y-5671428D02*
X71961904Y-6128571D01*
X71961904Y-5900000D02*
X71161904Y-5900000D01*
X71276190Y-5976190D01*
X71352380Y-6052380D01*
X71390476Y-6128571D01*
G04 #@! TO.C,C2*
X67516666Y-3835714D02*
X67478571Y-3873809D01*
X67364285Y-3911904D01*
X67288095Y-3911904D01*
X67173809Y-3873809D01*
X67097619Y-3797619D01*
X67059523Y-3721428D01*
X67021428Y-3569047D01*
X67021428Y-3454761D01*
X67059523Y-3302380D01*
X67097619Y-3226190D01*
X67173809Y-3150000D01*
X67288095Y-3111904D01*
X67364285Y-3111904D01*
X67478571Y-3150000D01*
X67516666Y-3188095D01*
X67821428Y-3188095D02*
X67859523Y-3150000D01*
X67935714Y-3111904D01*
X68126190Y-3111904D01*
X68202380Y-3150000D01*
X68240476Y-3188095D01*
X68278571Y-3264285D01*
X68278571Y-3340476D01*
X68240476Y-3454761D01*
X67783333Y-3911904D01*
X68278571Y-3911904D01*
G04 #@! TO.C,C4*
X56185714Y-7633333D02*
X56223809Y-7671428D01*
X56261904Y-7785714D01*
X56261904Y-7861904D01*
X56223809Y-7976190D01*
X56147619Y-8052380D01*
X56071428Y-8090476D01*
X55919047Y-8128571D01*
X55804761Y-8128571D01*
X55652380Y-8090476D01*
X55576190Y-8052380D01*
X55500000Y-7976190D01*
X55461904Y-7861904D01*
X55461904Y-7785714D01*
X55500000Y-7671428D01*
X55538095Y-7633333D01*
X55728571Y-6947619D02*
X56261904Y-6947619D01*
X55423809Y-7138095D02*
X55995238Y-7328571D01*
X55995238Y-6833333D01*
G04 #@! TO.C,C8*
X61866666Y-34485714D02*
X61828571Y-34523809D01*
X61714285Y-34561904D01*
X61638095Y-34561904D01*
X61523809Y-34523809D01*
X61447619Y-34447619D01*
X61409523Y-34371428D01*
X61371428Y-34219047D01*
X61371428Y-34104761D01*
X61409523Y-33952380D01*
X61447619Y-33876190D01*
X61523809Y-33800000D01*
X61638095Y-33761904D01*
X61714285Y-33761904D01*
X61828571Y-33800000D01*
X61866666Y-33838095D01*
X62323809Y-34104761D02*
X62247619Y-34066666D01*
X62209523Y-34028571D01*
X62171428Y-33952380D01*
X62171428Y-33914285D01*
X62209523Y-33838095D01*
X62247619Y-33800000D01*
X62323809Y-33761904D01*
X62476190Y-33761904D01*
X62552380Y-33800000D01*
X62590476Y-33838095D01*
X62628571Y-33914285D01*
X62628571Y-33952380D01*
X62590476Y-34028571D01*
X62552380Y-34066666D01*
X62476190Y-34104761D01*
X62323809Y-34104761D01*
X62247619Y-34142857D01*
X62209523Y-34180952D01*
X62171428Y-34257142D01*
X62171428Y-34409523D01*
X62209523Y-34485714D01*
X62247619Y-34523809D01*
X62323809Y-34561904D01*
X62476190Y-34561904D01*
X62552380Y-34523809D01*
X62590476Y-34485714D01*
X62628571Y-34409523D01*
X62628571Y-34257142D01*
X62590476Y-34180952D01*
X62552380Y-34142857D01*
X62476190Y-34104761D01*
G04 #@! TO.C,C9*
X70366666Y-36735714D02*
X70328571Y-36773809D01*
X70214285Y-36811904D01*
X70138095Y-36811904D01*
X70023809Y-36773809D01*
X69947619Y-36697619D01*
X69909523Y-36621428D01*
X69871428Y-36469047D01*
X69871428Y-36354761D01*
X69909523Y-36202380D01*
X69947619Y-36126190D01*
X70023809Y-36050000D01*
X70138095Y-36011904D01*
X70214285Y-36011904D01*
X70328571Y-36050000D01*
X70366666Y-36088095D01*
X70747619Y-36811904D02*
X70900000Y-36811904D01*
X70976190Y-36773809D01*
X71014285Y-36735714D01*
X71090476Y-36621428D01*
X71128571Y-36469047D01*
X71128571Y-36164285D01*
X71090476Y-36088095D01*
X71052380Y-36050000D01*
X70976190Y-36011904D01*
X70823809Y-36011904D01*
X70747619Y-36050000D01*
X70709523Y-36088095D01*
X70671428Y-36164285D01*
X70671428Y-36354761D01*
X70709523Y-36430952D01*
X70747619Y-36469047D01*
X70823809Y-36507142D01*
X70976190Y-36507142D01*
X71052380Y-36469047D01*
X71090476Y-36430952D01*
X71128571Y-36354761D01*
G04 #@! TO.C,C10*
X61535714Y-23435714D02*
X61497619Y-23473809D01*
X61383333Y-23511904D01*
X61307142Y-23511904D01*
X61192857Y-23473809D01*
X61116666Y-23397619D01*
X61078571Y-23321428D01*
X61040476Y-23169047D01*
X61040476Y-23054761D01*
X61078571Y-22902380D01*
X61116666Y-22826190D01*
X61192857Y-22750000D01*
X61307142Y-22711904D01*
X61383333Y-22711904D01*
X61497619Y-22750000D01*
X61535714Y-22788095D01*
X62297619Y-23511904D02*
X61840476Y-23511904D01*
X62069047Y-23511904D02*
X62069047Y-22711904D01*
X61992857Y-22826190D01*
X61916666Y-22902380D01*
X61840476Y-22940476D01*
X62792857Y-22711904D02*
X62869047Y-22711904D01*
X62945238Y-22750000D01*
X62983333Y-22788095D01*
X63021428Y-22864285D01*
X63059523Y-23016666D01*
X63059523Y-23207142D01*
X63021428Y-23359523D01*
X62983333Y-23435714D01*
X62945238Y-23473809D01*
X62869047Y-23511904D01*
X62792857Y-23511904D01*
X62716666Y-23473809D01*
X62678571Y-23435714D01*
X62640476Y-23359523D01*
X62602380Y-23207142D01*
X62602380Y-23016666D01*
X62640476Y-22864285D01*
X62678571Y-22788095D01*
X62716666Y-22750000D01*
X62792857Y-22711904D01*
G04 #@! TO.C,JP1*
X83283333Y-32661904D02*
X83283333Y-33233333D01*
X83245238Y-33347619D01*
X83169047Y-33423809D01*
X83054761Y-33461904D01*
X82978571Y-33461904D01*
X83664285Y-33461904D02*
X83664285Y-32661904D01*
X83969047Y-32661904D01*
X84045238Y-32700000D01*
X84083333Y-32738095D01*
X84121428Y-32814285D01*
X84121428Y-32928571D01*
X84083333Y-33004761D01*
X84045238Y-33042857D01*
X83969047Y-33080952D01*
X83664285Y-33080952D01*
X84883333Y-33461904D02*
X84426190Y-33461904D01*
X84654761Y-33461904D02*
X84654761Y-32661904D01*
X84578571Y-32776190D01*
X84502380Y-32852380D01*
X84426190Y-32890476D01*
G04 #@! TO.C,L3*
X84016666Y-42711904D02*
X83635714Y-42711904D01*
X83635714Y-41911904D01*
X84207142Y-41911904D02*
X84702380Y-41911904D01*
X84435714Y-42216666D01*
X84550000Y-42216666D01*
X84626190Y-42254761D01*
X84664285Y-42292857D01*
X84702380Y-42369047D01*
X84702380Y-42559523D01*
X84664285Y-42635714D01*
X84626190Y-42673809D01*
X84550000Y-42711904D01*
X84321428Y-42711904D01*
X84245238Y-42673809D01*
X84207142Y-42635714D01*
G04 #@! TO.C,R2*
X89666666Y-34961904D02*
X89400000Y-34580952D01*
X89209523Y-34961904D02*
X89209523Y-34161904D01*
X89514285Y-34161904D01*
X89590476Y-34200000D01*
X89628571Y-34238095D01*
X89666666Y-34314285D01*
X89666666Y-34428571D01*
X89628571Y-34504761D01*
X89590476Y-34542857D01*
X89514285Y-34580952D01*
X89209523Y-34580952D01*
X89971428Y-34238095D02*
X90009523Y-34200000D01*
X90085714Y-34161904D01*
X90276190Y-34161904D01*
X90352380Y-34200000D01*
X90390476Y-34238095D01*
X90428571Y-34314285D01*
X90428571Y-34390476D01*
X90390476Y-34504761D01*
X89933333Y-34961904D01*
X90428571Y-34961904D01*
G04 #@! TO.C,R3*
X89766666Y-42361904D02*
X89500000Y-41980952D01*
X89309523Y-42361904D02*
X89309523Y-41561904D01*
X89614285Y-41561904D01*
X89690476Y-41600000D01*
X89728571Y-41638095D01*
X89766666Y-41714285D01*
X89766666Y-41828571D01*
X89728571Y-41904761D01*
X89690476Y-41942857D01*
X89614285Y-41980952D01*
X89309523Y-41980952D01*
X90033333Y-41561904D02*
X90528571Y-41561904D01*
X90261904Y-41866666D01*
X90376190Y-41866666D01*
X90452380Y-41904761D01*
X90490476Y-41942857D01*
X90528571Y-42019047D01*
X90528571Y-42209523D01*
X90490476Y-42285714D01*
X90452380Y-42323809D01*
X90376190Y-42361904D01*
X90147619Y-42361904D01*
X90071428Y-42323809D01*
X90033333Y-42285714D01*
G04 #@! TO.C,R6*
X89666666Y-39961904D02*
X89400000Y-39580952D01*
X89209523Y-39961904D02*
X89209523Y-39161904D01*
X89514285Y-39161904D01*
X89590476Y-39200000D01*
X89628571Y-39238095D01*
X89666666Y-39314285D01*
X89666666Y-39428571D01*
X89628571Y-39504761D01*
X89590476Y-39542857D01*
X89514285Y-39580952D01*
X89209523Y-39580952D01*
X90352380Y-39161904D02*
X90200000Y-39161904D01*
X90123809Y-39200000D01*
X90085714Y-39238095D01*
X90009523Y-39352380D01*
X89971428Y-39504761D01*
X89971428Y-39809523D01*
X90009523Y-39885714D01*
X90047619Y-39923809D01*
X90123809Y-39961904D01*
X90276190Y-39961904D01*
X90352380Y-39923809D01*
X90390476Y-39885714D01*
X90428571Y-39809523D01*
X90428571Y-39619047D01*
X90390476Y-39542857D01*
X90352380Y-39504761D01*
X90276190Y-39466666D01*
X90123809Y-39466666D01*
X90047619Y-39504761D01*
X90009523Y-39542857D01*
X89971428Y-39619047D01*
G04 #@! TO.C,R7*
X89666666Y-37561904D02*
X89400000Y-37180952D01*
X89209523Y-37561904D02*
X89209523Y-36761904D01*
X89514285Y-36761904D01*
X89590476Y-36800000D01*
X89628571Y-36838095D01*
X89666666Y-36914285D01*
X89666666Y-37028571D01*
X89628571Y-37104761D01*
X89590476Y-37142857D01*
X89514285Y-37180952D01*
X89209523Y-37180952D01*
X89933333Y-36761904D02*
X90466666Y-36761904D01*
X90123809Y-37561904D01*
G04 #@! TO.C,C21*
X96435714Y-15514285D02*
X96473809Y-15552380D01*
X96511904Y-15666666D01*
X96511904Y-15742857D01*
X96473809Y-15857142D01*
X96397619Y-15933333D01*
X96321428Y-15971428D01*
X96169047Y-16009523D01*
X96054761Y-16009523D01*
X95902380Y-15971428D01*
X95826190Y-15933333D01*
X95750000Y-15857142D01*
X95711904Y-15742857D01*
X95711904Y-15666666D01*
X95750000Y-15552380D01*
X95788095Y-15514285D01*
X95788095Y-15209523D02*
X95750000Y-15171428D01*
X95711904Y-15095238D01*
X95711904Y-14904761D01*
X95750000Y-14828571D01*
X95788095Y-14790476D01*
X95864285Y-14752380D01*
X95940476Y-14752380D01*
X96054761Y-14790476D01*
X96511904Y-15247619D01*
X96511904Y-14752380D01*
X96511904Y-13990476D02*
X96511904Y-14447619D01*
X96511904Y-14219047D02*
X95711904Y-14219047D01*
X95826190Y-14295238D01*
X95902380Y-14371428D01*
X95940476Y-14447619D01*
G04 #@! TO.C,C22*
X96064285Y-7485714D02*
X96026190Y-7447619D01*
X95988095Y-7333333D01*
X95988095Y-7257142D01*
X96026190Y-7142857D01*
X96102380Y-7066666D01*
X96178571Y-7028571D01*
X96330952Y-6990476D01*
X96445238Y-6990476D01*
X96597619Y-7028571D01*
X96673809Y-7066666D01*
X96750000Y-7142857D01*
X96788095Y-7257142D01*
X96788095Y-7333333D01*
X96750000Y-7447619D01*
X96711904Y-7485714D01*
X96711904Y-7790476D02*
X96750000Y-7828571D01*
X96788095Y-7904761D01*
X96788095Y-8095238D01*
X96750000Y-8171428D01*
X96711904Y-8209523D01*
X96635714Y-8247619D01*
X96559523Y-8247619D01*
X96445238Y-8209523D01*
X95988095Y-7752380D01*
X95988095Y-8247619D01*
X96711904Y-8552380D02*
X96750000Y-8590476D01*
X96788095Y-8666666D01*
X96788095Y-8857142D01*
X96750000Y-8933333D01*
X96711904Y-8971428D01*
X96635714Y-9009523D01*
X96559523Y-9009523D01*
X96445238Y-8971428D01*
X95988095Y-8514285D01*
X95988095Y-9009523D01*
G04 #@! TO.C,C23*
X79585714Y-2685714D02*
X79547619Y-2723809D01*
X79433333Y-2761904D01*
X79357142Y-2761904D01*
X79242857Y-2723809D01*
X79166666Y-2647619D01*
X79128571Y-2571428D01*
X79090476Y-2419047D01*
X79090476Y-2304761D01*
X79128571Y-2152380D01*
X79166666Y-2076190D01*
X79242857Y-2000000D01*
X79357142Y-1961904D01*
X79433333Y-1961904D01*
X79547619Y-2000000D01*
X79585714Y-2038095D01*
X79890476Y-2038095D02*
X79928571Y-2000000D01*
X80004761Y-1961904D01*
X80195238Y-1961904D01*
X80271428Y-2000000D01*
X80309523Y-2038095D01*
X80347619Y-2114285D01*
X80347619Y-2190476D01*
X80309523Y-2304761D01*
X79852380Y-2761904D01*
X80347619Y-2761904D01*
X80614285Y-1961904D02*
X81109523Y-1961904D01*
X80842857Y-2266666D01*
X80957142Y-2266666D01*
X81033333Y-2304761D01*
X81071428Y-2342857D01*
X81109523Y-2419047D01*
X81109523Y-2609523D01*
X81071428Y-2685714D01*
X81033333Y-2723809D01*
X80957142Y-2761904D01*
X80728571Y-2761904D01*
X80652380Y-2723809D01*
X80614285Y-2685714D01*
G04 #@! TO.C,C32*
X45285714Y-34185714D02*
X45247619Y-34223809D01*
X45133333Y-34261904D01*
X45057142Y-34261904D01*
X44942857Y-34223809D01*
X44866666Y-34147619D01*
X44828571Y-34071428D01*
X44790476Y-33919047D01*
X44790476Y-33804761D01*
X44828571Y-33652380D01*
X44866666Y-33576190D01*
X44942857Y-33500000D01*
X45057142Y-33461904D01*
X45133333Y-33461904D01*
X45247619Y-33500000D01*
X45285714Y-33538095D01*
X45552380Y-33461904D02*
X46047619Y-33461904D01*
X45780952Y-33766666D01*
X45895238Y-33766666D01*
X45971428Y-33804761D01*
X46009523Y-33842857D01*
X46047619Y-33919047D01*
X46047619Y-34109523D01*
X46009523Y-34185714D01*
X45971428Y-34223809D01*
X45895238Y-34261904D01*
X45666666Y-34261904D01*
X45590476Y-34223809D01*
X45552380Y-34185714D01*
X46352380Y-33538095D02*
X46390476Y-33500000D01*
X46466666Y-33461904D01*
X46657142Y-33461904D01*
X46733333Y-33500000D01*
X46771428Y-33538095D01*
X46809523Y-33614285D01*
X46809523Y-33690476D01*
X46771428Y-33804761D01*
X46314285Y-34261904D01*
X46809523Y-34261904D01*
G04 #@! TO.C,C33*
X31585714Y-19285714D02*
X31547619Y-19323809D01*
X31433333Y-19361904D01*
X31357142Y-19361904D01*
X31242857Y-19323809D01*
X31166666Y-19247619D01*
X31128571Y-19171428D01*
X31090476Y-19019047D01*
X31090476Y-18904761D01*
X31128571Y-18752380D01*
X31166666Y-18676190D01*
X31242857Y-18600000D01*
X31357142Y-18561904D01*
X31433333Y-18561904D01*
X31547619Y-18600000D01*
X31585714Y-18638095D01*
X31852380Y-18561904D02*
X32347619Y-18561904D01*
X32080952Y-18866666D01*
X32195238Y-18866666D01*
X32271428Y-18904761D01*
X32309523Y-18942857D01*
X32347619Y-19019047D01*
X32347619Y-19209523D01*
X32309523Y-19285714D01*
X32271428Y-19323809D01*
X32195238Y-19361904D01*
X31966666Y-19361904D01*
X31890476Y-19323809D01*
X31852380Y-19285714D01*
X32614285Y-18561904D02*
X33109523Y-18561904D01*
X32842857Y-18866666D01*
X32957142Y-18866666D01*
X33033333Y-18904761D01*
X33071428Y-18942857D01*
X33109523Y-19019047D01*
X33109523Y-19209523D01*
X33071428Y-19285714D01*
X33033333Y-19323809D01*
X32957142Y-19361904D01*
X32728571Y-19361904D01*
X32652380Y-19323809D01*
X32614285Y-19285714D01*
G04 #@! TO.C,C35*
X41685714Y-28385714D02*
X41647619Y-28423809D01*
X41533333Y-28461904D01*
X41457142Y-28461904D01*
X41342857Y-28423809D01*
X41266666Y-28347619D01*
X41228571Y-28271428D01*
X41190476Y-28119047D01*
X41190476Y-28004761D01*
X41228571Y-27852380D01*
X41266666Y-27776190D01*
X41342857Y-27700000D01*
X41457142Y-27661904D01*
X41533333Y-27661904D01*
X41647619Y-27700000D01*
X41685714Y-27738095D01*
X41952380Y-27661904D02*
X42447619Y-27661904D01*
X42180952Y-27966666D01*
X42295238Y-27966666D01*
X42371428Y-28004761D01*
X42409523Y-28042857D01*
X42447619Y-28119047D01*
X42447619Y-28309523D01*
X42409523Y-28385714D01*
X42371428Y-28423809D01*
X42295238Y-28461904D01*
X42066666Y-28461904D01*
X41990476Y-28423809D01*
X41952380Y-28385714D01*
X43171428Y-27661904D02*
X42790476Y-27661904D01*
X42752380Y-28042857D01*
X42790476Y-28004761D01*
X42866666Y-27966666D01*
X43057142Y-27966666D01*
X43133333Y-28004761D01*
X43171428Y-28042857D01*
X43209523Y-28119047D01*
X43209523Y-28309523D01*
X43171428Y-28385714D01*
X43133333Y-28423809D01*
X43057142Y-28461904D01*
X42866666Y-28461904D01*
X42790476Y-28423809D01*
X42752380Y-28385714D01*
G04 #@! TO.C,C36*
X40385714Y-26385714D02*
X40347619Y-26423809D01*
X40233333Y-26461904D01*
X40157142Y-26461904D01*
X40042857Y-26423809D01*
X39966666Y-26347619D01*
X39928571Y-26271428D01*
X39890476Y-26119047D01*
X39890476Y-26004761D01*
X39928571Y-25852380D01*
X39966666Y-25776190D01*
X40042857Y-25700000D01*
X40157142Y-25661904D01*
X40233333Y-25661904D01*
X40347619Y-25700000D01*
X40385714Y-25738095D01*
X40652380Y-25661904D02*
X41147619Y-25661904D01*
X40880952Y-25966666D01*
X40995238Y-25966666D01*
X41071428Y-26004761D01*
X41109523Y-26042857D01*
X41147619Y-26119047D01*
X41147619Y-26309523D01*
X41109523Y-26385714D01*
X41071428Y-26423809D01*
X40995238Y-26461904D01*
X40766666Y-26461904D01*
X40690476Y-26423809D01*
X40652380Y-26385714D01*
X41833333Y-25661904D02*
X41680952Y-25661904D01*
X41604761Y-25700000D01*
X41566666Y-25738095D01*
X41490476Y-25852380D01*
X41452380Y-26004761D01*
X41452380Y-26309523D01*
X41490476Y-26385714D01*
X41528571Y-26423809D01*
X41604761Y-26461904D01*
X41757142Y-26461904D01*
X41833333Y-26423809D01*
X41871428Y-26385714D01*
X41909523Y-26309523D01*
X41909523Y-26119047D01*
X41871428Y-26042857D01*
X41833333Y-26004761D01*
X41757142Y-25966666D01*
X41604761Y-25966666D01*
X41528571Y-26004761D01*
X41490476Y-26042857D01*
X41452380Y-26119047D01*
G04 #@! TO.C,C37*
X45385714Y-31085714D02*
X45347619Y-31123809D01*
X45233333Y-31161904D01*
X45157142Y-31161904D01*
X45042857Y-31123809D01*
X44966666Y-31047619D01*
X44928571Y-30971428D01*
X44890476Y-30819047D01*
X44890476Y-30704761D01*
X44928571Y-30552380D01*
X44966666Y-30476190D01*
X45042857Y-30400000D01*
X45157142Y-30361904D01*
X45233333Y-30361904D01*
X45347619Y-30400000D01*
X45385714Y-30438095D01*
X45652380Y-30361904D02*
X46147619Y-30361904D01*
X45880952Y-30666666D01*
X45995238Y-30666666D01*
X46071428Y-30704761D01*
X46109523Y-30742857D01*
X46147619Y-30819047D01*
X46147619Y-31009523D01*
X46109523Y-31085714D01*
X46071428Y-31123809D01*
X45995238Y-31161904D01*
X45766666Y-31161904D01*
X45690476Y-31123809D01*
X45652380Y-31085714D01*
X46414285Y-30361904D02*
X46947619Y-30361904D01*
X46604761Y-31161904D01*
G04 #@! TO.C,C38*
X31035714Y-34264285D02*
X31073809Y-34302380D01*
X31111904Y-34416666D01*
X31111904Y-34492857D01*
X31073809Y-34607142D01*
X30997619Y-34683333D01*
X30921428Y-34721428D01*
X30769047Y-34759523D01*
X30654761Y-34759523D01*
X30502380Y-34721428D01*
X30426190Y-34683333D01*
X30350000Y-34607142D01*
X30311904Y-34492857D01*
X30311904Y-34416666D01*
X30350000Y-34302380D01*
X30388095Y-34264285D01*
X30311904Y-33997619D02*
X30311904Y-33502380D01*
X30616666Y-33769047D01*
X30616666Y-33654761D01*
X30654761Y-33578571D01*
X30692857Y-33540476D01*
X30769047Y-33502380D01*
X30959523Y-33502380D01*
X31035714Y-33540476D01*
X31073809Y-33578571D01*
X31111904Y-33654761D01*
X31111904Y-33883333D01*
X31073809Y-33959523D01*
X31035714Y-33997619D01*
X30654761Y-33045238D02*
X30616666Y-33121428D01*
X30578571Y-33159523D01*
X30502380Y-33197619D01*
X30464285Y-33197619D01*
X30388095Y-33159523D01*
X30350000Y-33121428D01*
X30311904Y-33045238D01*
X30311904Y-32892857D01*
X30350000Y-32816666D01*
X30388095Y-32778571D01*
X30464285Y-32740476D01*
X30502380Y-32740476D01*
X30578571Y-32778571D01*
X30616666Y-32816666D01*
X30654761Y-32892857D01*
X30654761Y-33045238D01*
X30692857Y-33121428D01*
X30730952Y-33159523D01*
X30807142Y-33197619D01*
X30959523Y-33197619D01*
X31035714Y-33159523D01*
X31073809Y-33121428D01*
X31111904Y-33045238D01*
X31111904Y-32892857D01*
X31073809Y-32816666D01*
X31035714Y-32778571D01*
X30959523Y-32740476D01*
X30807142Y-32740476D01*
X30730952Y-32778571D01*
X30692857Y-32816666D01*
X30654761Y-32892857D01*
G04 #@! TO.C,C40*
X54185714Y-25585714D02*
X54147619Y-25623809D01*
X54033333Y-25661904D01*
X53957142Y-25661904D01*
X53842857Y-25623809D01*
X53766666Y-25547619D01*
X53728571Y-25471428D01*
X53690476Y-25319047D01*
X53690476Y-25204761D01*
X53728571Y-25052380D01*
X53766666Y-24976190D01*
X53842857Y-24900000D01*
X53957142Y-24861904D01*
X54033333Y-24861904D01*
X54147619Y-24900000D01*
X54185714Y-24938095D01*
X54871428Y-25128571D02*
X54871428Y-25661904D01*
X54680952Y-24823809D02*
X54490476Y-25395238D01*
X54985714Y-25395238D01*
X55442857Y-24861904D02*
X55519047Y-24861904D01*
X55595238Y-24900000D01*
X55633333Y-24938095D01*
X55671428Y-25014285D01*
X55709523Y-25166666D01*
X55709523Y-25357142D01*
X55671428Y-25509523D01*
X55633333Y-25585714D01*
X55595238Y-25623809D01*
X55519047Y-25661904D01*
X55442857Y-25661904D01*
X55366666Y-25623809D01*
X55328571Y-25585714D01*
X55290476Y-25509523D01*
X55252380Y-25357142D01*
X55252380Y-25166666D01*
X55290476Y-25014285D01*
X55328571Y-24938095D01*
X55366666Y-24900000D01*
X55442857Y-24861904D01*
G04 #@! TO.C,C41*
X41285714Y-29985714D02*
X41247619Y-30023809D01*
X41133333Y-30061904D01*
X41057142Y-30061904D01*
X40942857Y-30023809D01*
X40866666Y-29947619D01*
X40828571Y-29871428D01*
X40790476Y-29719047D01*
X40790476Y-29604761D01*
X40828571Y-29452380D01*
X40866666Y-29376190D01*
X40942857Y-29300000D01*
X41057142Y-29261904D01*
X41133333Y-29261904D01*
X41247619Y-29300000D01*
X41285714Y-29338095D01*
X41971428Y-29528571D02*
X41971428Y-30061904D01*
X41780952Y-29223809D02*
X41590476Y-29795238D01*
X42085714Y-29795238D01*
X42809523Y-30061904D02*
X42352380Y-30061904D01*
X42580952Y-30061904D02*
X42580952Y-29261904D01*
X42504761Y-29376190D01*
X42428571Y-29452380D01*
X42352380Y-29490476D01*
G04 #@! TO.C,C42*
X43185714Y-25685714D02*
X43147619Y-25723809D01*
X43033333Y-25761904D01*
X42957142Y-25761904D01*
X42842857Y-25723809D01*
X42766666Y-25647619D01*
X42728571Y-25571428D01*
X42690476Y-25419047D01*
X42690476Y-25304761D01*
X42728571Y-25152380D01*
X42766666Y-25076190D01*
X42842857Y-25000000D01*
X42957142Y-24961904D01*
X43033333Y-24961904D01*
X43147619Y-25000000D01*
X43185714Y-25038095D01*
X43871428Y-25228571D02*
X43871428Y-25761904D01*
X43680952Y-24923809D02*
X43490476Y-25495238D01*
X43985714Y-25495238D01*
X44252380Y-25038095D02*
X44290476Y-25000000D01*
X44366666Y-24961904D01*
X44557142Y-24961904D01*
X44633333Y-25000000D01*
X44671428Y-25038095D01*
X44709523Y-25114285D01*
X44709523Y-25190476D01*
X44671428Y-25304761D01*
X44214285Y-25761904D01*
X44709523Y-25761904D01*
G04 #@! TO.C,C43*
X40285714Y-37885714D02*
X40247619Y-37923809D01*
X40133333Y-37961904D01*
X40057142Y-37961904D01*
X39942857Y-37923809D01*
X39866666Y-37847619D01*
X39828571Y-37771428D01*
X39790476Y-37619047D01*
X39790476Y-37504761D01*
X39828571Y-37352380D01*
X39866666Y-37276190D01*
X39942857Y-37200000D01*
X40057142Y-37161904D01*
X40133333Y-37161904D01*
X40247619Y-37200000D01*
X40285714Y-37238095D01*
X40971428Y-37428571D02*
X40971428Y-37961904D01*
X40780952Y-37123809D02*
X40590476Y-37695238D01*
X41085714Y-37695238D01*
X41314285Y-37161904D02*
X41809523Y-37161904D01*
X41542857Y-37466666D01*
X41657142Y-37466666D01*
X41733333Y-37504761D01*
X41771428Y-37542857D01*
X41809523Y-37619047D01*
X41809523Y-37809523D01*
X41771428Y-37885714D01*
X41733333Y-37923809D01*
X41657142Y-37961904D01*
X41428571Y-37961904D01*
X41352380Y-37923809D01*
X41314285Y-37885714D01*
G04 #@! TO.C,L10*
X30461904Y-28914285D02*
X30461904Y-29295238D01*
X29661904Y-29295238D01*
X30461904Y-28228571D02*
X30461904Y-28685714D01*
X30461904Y-28457142D02*
X29661904Y-28457142D01*
X29776190Y-28533333D01*
X29852380Y-28609523D01*
X29890476Y-28685714D01*
X29661904Y-27733333D02*
X29661904Y-27657142D01*
X29700000Y-27580952D01*
X29738095Y-27542857D01*
X29814285Y-27504761D01*
X29966666Y-27466666D01*
X30157142Y-27466666D01*
X30309523Y-27504761D01*
X30385714Y-27542857D01*
X30423809Y-27580952D01*
X30461904Y-27657142D01*
X30461904Y-27733333D01*
X30423809Y-27809523D01*
X30385714Y-27847619D01*
X30309523Y-27885714D01*
X30157142Y-27923809D01*
X29966666Y-27923809D01*
X29814285Y-27885714D01*
X29738095Y-27847619D01*
X29700000Y-27809523D01*
X29661904Y-27733333D01*
G04 #@! TO.C,L13*
X40185714Y-34561904D02*
X39804761Y-34561904D01*
X39804761Y-33761904D01*
X40871428Y-34561904D02*
X40414285Y-34561904D01*
X40642857Y-34561904D02*
X40642857Y-33761904D01*
X40566666Y-33876190D01*
X40490476Y-33952380D01*
X40414285Y-33990476D01*
X41138095Y-33761904D02*
X41633333Y-33761904D01*
X41366666Y-34066666D01*
X41480952Y-34066666D01*
X41557142Y-34104761D01*
X41595238Y-34142857D01*
X41633333Y-34219047D01*
X41633333Y-34409523D01*
X41595238Y-34485714D01*
X41557142Y-34523809D01*
X41480952Y-34561904D01*
X41252380Y-34561904D01*
X41176190Y-34523809D01*
X41138095Y-34485714D01*
G04 #@! TO.C,L1*
X60616666Y-26111904D02*
X60235714Y-26111904D01*
X60235714Y-25311904D01*
X61302380Y-26111904D02*
X60845238Y-26111904D01*
X61073809Y-26111904D02*
X61073809Y-25311904D01*
X60997619Y-25426190D01*
X60921428Y-25502380D01*
X60845238Y-25540476D01*
G04 #@! TO.C,L5*
X90466666Y-8661904D02*
X90085714Y-8661904D01*
X90085714Y-7861904D01*
X91114285Y-7861904D02*
X90733333Y-7861904D01*
X90695238Y-8242857D01*
X90733333Y-8204761D01*
X90809523Y-8166666D01*
X91000000Y-8166666D01*
X91076190Y-8204761D01*
X91114285Y-8242857D01*
X91152380Y-8319047D01*
X91152380Y-8509523D01*
X91114285Y-8585714D01*
X91076190Y-8623809D01*
X91000000Y-8661904D01*
X90809523Y-8661904D01*
X90733333Y-8623809D01*
X90695238Y-8585714D01*
G04 #@! TO.C,L6*
X87366666Y-2361904D02*
X86985714Y-2361904D01*
X86985714Y-1561904D01*
X87976190Y-1561904D02*
X87823809Y-1561904D01*
X87747619Y-1600000D01*
X87709523Y-1638095D01*
X87633333Y-1752380D01*
X87595238Y-1904761D01*
X87595238Y-2209523D01*
X87633333Y-2285714D01*
X87671428Y-2323809D01*
X87747619Y-2361904D01*
X87900000Y-2361904D01*
X87976190Y-2323809D01*
X88014285Y-2285714D01*
X88052380Y-2209523D01*
X88052380Y-2019047D01*
X88014285Y-1942857D01*
X87976190Y-1904761D01*
X87900000Y-1866666D01*
X87747619Y-1866666D01*
X87671428Y-1904761D01*
X87633333Y-1942857D01*
X87595238Y-2019047D01*
G04 #@! TO.C,L9*
X56266666Y-34261904D02*
X55885714Y-34261904D01*
X55885714Y-33461904D01*
X56571428Y-34261904D02*
X56723809Y-34261904D01*
X56800000Y-34223809D01*
X56838095Y-34185714D01*
X56914285Y-34071428D01*
X56952380Y-33919047D01*
X56952380Y-33614285D01*
X56914285Y-33538095D01*
X56876190Y-33500000D01*
X56800000Y-33461904D01*
X56647619Y-33461904D01*
X56571428Y-33500000D01*
X56533333Y-33538095D01*
X56495238Y-33614285D01*
X56495238Y-33804761D01*
X56533333Y-33880952D01*
X56571428Y-33919047D01*
X56647619Y-33957142D01*
X56800000Y-33957142D01*
X56876190Y-33919047D01*
X56914285Y-33880952D01*
X56952380Y-33804761D01*
G04 #@! TO.C,L12*
X56485714Y-18661904D02*
X56104761Y-18661904D01*
X56104761Y-17861904D01*
X57171428Y-18661904D02*
X56714285Y-18661904D01*
X56942857Y-18661904D02*
X56942857Y-17861904D01*
X56866666Y-17976190D01*
X56790476Y-18052380D01*
X56714285Y-18090476D01*
X57476190Y-17938095D02*
X57514285Y-17900000D01*
X57590476Y-17861904D01*
X57780952Y-17861904D01*
X57857142Y-17900000D01*
X57895238Y-17938095D01*
X57933333Y-18014285D01*
X57933333Y-18090476D01*
X57895238Y-18204761D01*
X57438095Y-18661904D01*
X57933333Y-18661904D01*
G04 #@! TO.C,C50*
X53185714Y-43785714D02*
X53147619Y-43823809D01*
X53033333Y-43861904D01*
X52957142Y-43861904D01*
X52842857Y-43823809D01*
X52766666Y-43747619D01*
X52728571Y-43671428D01*
X52690476Y-43519047D01*
X52690476Y-43404761D01*
X52728571Y-43252380D01*
X52766666Y-43176190D01*
X52842857Y-43100000D01*
X52957142Y-43061904D01*
X53033333Y-43061904D01*
X53147619Y-43100000D01*
X53185714Y-43138095D01*
X53909523Y-43061904D02*
X53528571Y-43061904D01*
X53490476Y-43442857D01*
X53528571Y-43404761D01*
X53604761Y-43366666D01*
X53795238Y-43366666D01*
X53871428Y-43404761D01*
X53909523Y-43442857D01*
X53947619Y-43519047D01*
X53947619Y-43709523D01*
X53909523Y-43785714D01*
X53871428Y-43823809D01*
X53795238Y-43861904D01*
X53604761Y-43861904D01*
X53528571Y-43823809D01*
X53490476Y-43785714D01*
X54442857Y-43061904D02*
X54519047Y-43061904D01*
X54595238Y-43100000D01*
X54633333Y-43138095D01*
X54671428Y-43214285D01*
X54709523Y-43366666D01*
X54709523Y-43557142D01*
X54671428Y-43709523D01*
X54633333Y-43785714D01*
X54595238Y-43823809D01*
X54519047Y-43861904D01*
X54442857Y-43861904D01*
X54366666Y-43823809D01*
X54328571Y-43785714D01*
X54290476Y-43709523D01*
X54252380Y-43557142D01*
X54252380Y-43366666D01*
X54290476Y-43214285D01*
X54328571Y-43138095D01*
X54366666Y-43100000D01*
X54442857Y-43061904D01*
G04 #@! TO.C,C47*
X90785714Y-22714285D02*
X90823809Y-22752380D01*
X90861904Y-22866666D01*
X90861904Y-22942857D01*
X90823809Y-23057142D01*
X90747619Y-23133333D01*
X90671428Y-23171428D01*
X90519047Y-23209523D01*
X90404761Y-23209523D01*
X90252380Y-23171428D01*
X90176190Y-23133333D01*
X90100000Y-23057142D01*
X90061904Y-22942857D01*
X90061904Y-22866666D01*
X90100000Y-22752380D01*
X90138095Y-22714285D01*
X90328571Y-22028571D02*
X90861904Y-22028571D01*
X90023809Y-22219047D02*
X90595238Y-22409523D01*
X90595238Y-21914285D01*
X90061904Y-21685714D02*
X90061904Y-21152380D01*
X90861904Y-21495238D01*
G04 #@! TO.C,C48*
X94185714Y-26064285D02*
X94223809Y-26102380D01*
X94261904Y-26216666D01*
X94261904Y-26292857D01*
X94223809Y-26407142D01*
X94147619Y-26483333D01*
X94071428Y-26521428D01*
X93919047Y-26559523D01*
X93804761Y-26559523D01*
X93652380Y-26521428D01*
X93576190Y-26483333D01*
X93500000Y-26407142D01*
X93461904Y-26292857D01*
X93461904Y-26216666D01*
X93500000Y-26102380D01*
X93538095Y-26064285D01*
X93728571Y-25378571D02*
X94261904Y-25378571D01*
X93423809Y-25569047D02*
X93995238Y-25759523D01*
X93995238Y-25264285D01*
X93804761Y-24845238D02*
X93766666Y-24921428D01*
X93728571Y-24959523D01*
X93652380Y-24997619D01*
X93614285Y-24997619D01*
X93538095Y-24959523D01*
X93500000Y-24921428D01*
X93461904Y-24845238D01*
X93461904Y-24692857D01*
X93500000Y-24616666D01*
X93538095Y-24578571D01*
X93614285Y-24540476D01*
X93652380Y-24540476D01*
X93728571Y-24578571D01*
X93766666Y-24616666D01*
X93804761Y-24692857D01*
X93804761Y-24845238D01*
X93842857Y-24921428D01*
X93880952Y-24959523D01*
X93957142Y-24997619D01*
X94109523Y-24997619D01*
X94185714Y-24959523D01*
X94223809Y-24921428D01*
X94261904Y-24845238D01*
X94261904Y-24692857D01*
X94223809Y-24616666D01*
X94185714Y-24578571D01*
X94109523Y-24540476D01*
X93957142Y-24540476D01*
X93880952Y-24578571D01*
X93842857Y-24616666D01*
X93804761Y-24692857D01*
G04 #@! TO.C,C49*
X90785714Y-28614285D02*
X90823809Y-28652380D01*
X90861904Y-28766666D01*
X90861904Y-28842857D01*
X90823809Y-28957142D01*
X90747619Y-29033333D01*
X90671428Y-29071428D01*
X90519047Y-29109523D01*
X90404761Y-29109523D01*
X90252380Y-29071428D01*
X90176190Y-29033333D01*
X90100000Y-28957142D01*
X90061904Y-28842857D01*
X90061904Y-28766666D01*
X90100000Y-28652380D01*
X90138095Y-28614285D01*
X90328571Y-27928571D02*
X90861904Y-27928571D01*
X90023809Y-28119047D02*
X90595238Y-28309523D01*
X90595238Y-27814285D01*
X90861904Y-27471428D02*
X90861904Y-27319047D01*
X90823809Y-27242857D01*
X90785714Y-27204761D01*
X90671428Y-27128571D01*
X90519047Y-27090476D01*
X90214285Y-27090476D01*
X90138095Y-27128571D01*
X90100000Y-27166666D01*
X90061904Y-27242857D01*
X90061904Y-27395238D01*
X90100000Y-27471428D01*
X90138095Y-27509523D01*
X90214285Y-27547619D01*
X90404761Y-27547619D01*
X90480952Y-27509523D01*
X90519047Y-27471428D01*
X90557142Y-27395238D01*
X90557142Y-27242857D01*
X90519047Y-27166666D01*
X90480952Y-27128571D01*
X90404761Y-27090476D01*
G04 #@! TO.C,L4*
X94361904Y-30183333D02*
X94361904Y-30564285D01*
X93561904Y-30564285D01*
X93828571Y-29573809D02*
X94361904Y-29573809D01*
X93523809Y-29764285D02*
X94095238Y-29954761D01*
X94095238Y-29459523D01*
G04 #@! TO.C,L15*
X94261904Y-22314285D02*
X94261904Y-22695238D01*
X93461904Y-22695238D01*
X94261904Y-21628571D02*
X94261904Y-22085714D01*
X94261904Y-21857142D02*
X93461904Y-21857142D01*
X93576190Y-21933333D01*
X93652380Y-22009523D01*
X93690476Y-22085714D01*
X93461904Y-20904761D02*
X93461904Y-21285714D01*
X93842857Y-21323809D01*
X93804761Y-21285714D01*
X93766666Y-21209523D01*
X93766666Y-21019047D01*
X93804761Y-20942857D01*
X93842857Y-20904761D01*
X93919047Y-20866666D01*
X94109523Y-20866666D01*
X94185714Y-20904761D01*
X94223809Y-20942857D01*
X94261904Y-21019047D01*
X94261904Y-21209523D01*
X94223809Y-21285714D01*
X94185714Y-21323809D01*
G04 #@! TO.C,R1*
X94766666Y-49161904D02*
X94500000Y-48780952D01*
X94309523Y-49161904D02*
X94309523Y-48361904D01*
X94614285Y-48361904D01*
X94690476Y-48400000D01*
X94728571Y-48438095D01*
X94766666Y-48514285D01*
X94766666Y-48628571D01*
X94728571Y-48704761D01*
X94690476Y-48742857D01*
X94614285Y-48780952D01*
X94309523Y-48780952D01*
X95528571Y-49161904D02*
X95071428Y-49161904D01*
X95300000Y-49161904D02*
X95300000Y-48361904D01*
X95223809Y-48476190D01*
X95147619Y-48552380D01*
X95071428Y-48590476D01*
G04 #@! TO.C,K1*
X71009523Y-15611904D02*
X71009523Y-14811904D01*
X71466666Y-15611904D02*
X71123809Y-15154761D01*
X71466666Y-14811904D02*
X71009523Y-15269047D01*
X72228571Y-15611904D02*
X71771428Y-15611904D01*
X72000000Y-15611904D02*
X72000000Y-14811904D01*
X71923809Y-14926190D01*
X71847619Y-15002380D01*
X71771428Y-15040476D01*
G04 #@! TO.C,K2*
X60409523Y-6461904D02*
X60409523Y-5661904D01*
X60866666Y-6461904D02*
X60523809Y-6004761D01*
X60866666Y-5661904D02*
X60409523Y-6119047D01*
X61171428Y-5738095D02*
X61209523Y-5700000D01*
X61285714Y-5661904D01*
X61476190Y-5661904D01*
X61552380Y-5700000D01*
X61590476Y-5738095D01*
X61628571Y-5814285D01*
X61628571Y-5890476D01*
X61590476Y-6004761D01*
X61133333Y-6461904D01*
X61628571Y-6461904D01*
G04 #@! TO.C,K5*
X24609523Y-8461904D02*
X24609523Y-7661904D01*
X25066666Y-8461904D02*
X24723809Y-8004761D01*
X25066666Y-7661904D02*
X24609523Y-8119047D01*
X25790476Y-7661904D02*
X25409523Y-7661904D01*
X25371428Y-8042857D01*
X25409523Y-8004761D01*
X25485714Y-7966666D01*
X25676190Y-7966666D01*
X25752380Y-8004761D01*
X25790476Y-8042857D01*
X25828571Y-8119047D01*
X25828571Y-8309523D01*
X25790476Y-8385714D01*
X25752380Y-8423809D01*
X25676190Y-8461904D01*
X25485714Y-8461904D01*
X25409523Y-8423809D01*
X25371428Y-8385714D01*
G04 #@! TO.C,K6*
X11709523Y-8361904D02*
X11709523Y-7561904D01*
X12166666Y-8361904D02*
X11823809Y-7904761D01*
X12166666Y-7561904D02*
X11709523Y-8019047D01*
X12852380Y-7561904D02*
X12700000Y-7561904D01*
X12623809Y-7600000D01*
X12585714Y-7638095D01*
X12509523Y-7752380D01*
X12471428Y-7904761D01*
X12471428Y-8209523D01*
X12509523Y-8285714D01*
X12547619Y-8323809D01*
X12623809Y-8361904D01*
X12776190Y-8361904D01*
X12852380Y-8323809D01*
X12890476Y-8285714D01*
X12928571Y-8209523D01*
X12928571Y-8019047D01*
X12890476Y-7942857D01*
X12852380Y-7904761D01*
X12776190Y-7866666D01*
X12623809Y-7866666D01*
X12547619Y-7904761D01*
X12509523Y-7942857D01*
X12471428Y-8019047D01*
G04 #@! TO.C,K7*
X73209523Y-22361904D02*
X73209523Y-21561904D01*
X73666666Y-22361904D02*
X73323809Y-21904761D01*
X73666666Y-21561904D02*
X73209523Y-22019047D01*
X73933333Y-21561904D02*
X74466666Y-21561904D01*
X74123809Y-22361904D01*
G04 #@! TO.C,RV1*
X83023809Y-48861904D02*
X82757142Y-48480952D01*
X82566666Y-48861904D02*
X82566666Y-48061904D01*
X82871428Y-48061904D01*
X82947619Y-48100000D01*
X82985714Y-48138095D01*
X83023809Y-48214285D01*
X83023809Y-48328571D01*
X82985714Y-48404761D01*
X82947619Y-48442857D01*
X82871428Y-48480952D01*
X82566666Y-48480952D01*
X83252380Y-48061904D02*
X83519047Y-48861904D01*
X83785714Y-48061904D01*
X84471428Y-48861904D02*
X84014285Y-48861904D01*
X84242857Y-48861904D02*
X84242857Y-48061904D01*
X84166666Y-48176190D01*
X84090476Y-48252380D01*
X84014285Y-48290476D01*
G04 #@! TO.C,D3*
X38309523Y-7461904D02*
X38309523Y-6661904D01*
X38500000Y-6661904D01*
X38614285Y-6700000D01*
X38690476Y-6776190D01*
X38728571Y-6852380D01*
X38766666Y-7004761D01*
X38766666Y-7119047D01*
X38728571Y-7271428D01*
X38690476Y-7347619D01*
X38614285Y-7423809D01*
X38500000Y-7461904D01*
X38309523Y-7461904D01*
X39033333Y-6661904D02*
X39528571Y-6661904D01*
X39261904Y-6966666D01*
X39376190Y-6966666D01*
X39452380Y-7004761D01*
X39490476Y-7042857D01*
X39528571Y-7119047D01*
X39528571Y-7309523D01*
X39490476Y-7385714D01*
X39452380Y-7423809D01*
X39376190Y-7461904D01*
X39147619Y-7461904D01*
X39071428Y-7423809D01*
X39033333Y-7385714D01*
G04 #@! TO.C,FB1*
X54442857Y-4566666D02*
X54442857Y-4833333D01*
X54861904Y-4833333D02*
X54061904Y-4833333D01*
X54061904Y-4452380D01*
X54442857Y-3880952D02*
X54480952Y-3766666D01*
X54519047Y-3728571D01*
X54595238Y-3690476D01*
X54709523Y-3690476D01*
X54785714Y-3728571D01*
X54823809Y-3766666D01*
X54861904Y-3842857D01*
X54861904Y-4147619D01*
X54061904Y-4147619D01*
X54061904Y-3880952D01*
X54100000Y-3804761D01*
X54138095Y-3766666D01*
X54214285Y-3728571D01*
X54290476Y-3728571D01*
X54366666Y-3766666D01*
X54404761Y-3804761D01*
X54442857Y-3880952D01*
X54442857Y-4147619D01*
X54861904Y-2928571D02*
X54861904Y-3385714D01*
X54861904Y-3157142D02*
X54061904Y-3157142D01*
X54176190Y-3233333D01*
X54252380Y-3309523D01*
X54290476Y-3385714D01*
G04 #@! TO.C,CN4*
D10*
X70357142Y-46440476D02*
X70404761Y-46488095D01*
X70452380Y-46630952D01*
X70452380Y-46726190D01*
X70404761Y-46869047D01*
X70309523Y-46964285D01*
X70214285Y-47011904D01*
X70023809Y-47059523D01*
X69880952Y-47059523D01*
X69690476Y-47011904D01*
X69595238Y-46964285D01*
X69500000Y-46869047D01*
X69452380Y-46726190D01*
X69452380Y-46630952D01*
X69500000Y-46488095D01*
X69547619Y-46440476D01*
X70452380Y-46011904D02*
X69452380Y-46011904D01*
X70452380Y-45440476D01*
X69452380Y-45440476D01*
X69785714Y-44535714D02*
X70452380Y-44535714D01*
X69404761Y-44773809D02*
X70119047Y-45011904D01*
X70119047Y-44392857D01*
G04 #@! TO.C,J3*
X39452380Y-46333333D02*
X40166666Y-46333333D01*
X40309523Y-46380952D01*
X40404761Y-46476190D01*
X40452380Y-46619047D01*
X40452380Y-46714285D01*
X39452380Y-45952380D02*
X39452380Y-45333333D01*
X39833333Y-45666666D01*
X39833333Y-45523809D01*
X39880952Y-45428571D01*
X39928571Y-45380952D01*
X40023809Y-45333333D01*
X40261904Y-45333333D01*
X40357142Y-45380952D01*
X40404761Y-45428571D01*
X40452380Y-45523809D01*
X40452380Y-45809523D01*
X40404761Y-45904761D01*
X40357142Y-45952380D01*
G04 #@! TO.C,J4*
X25452380Y-45833333D02*
X26166666Y-45833333D01*
X26309523Y-45880952D01*
X26404761Y-45976190D01*
X26452380Y-46119047D01*
X26452380Y-46214285D01*
X25785714Y-44928571D02*
X26452380Y-44928571D01*
X25404761Y-45166666D02*
X26119047Y-45404761D01*
X26119047Y-44785714D01*
G04 #@! TO.C,CN7*
X14357142Y-2890476D02*
X14404761Y-2938095D01*
X14452380Y-3080952D01*
X14452380Y-3176190D01*
X14404761Y-3319047D01*
X14309523Y-3414285D01*
X14214285Y-3461904D01*
X14023809Y-3509523D01*
X13880952Y-3509523D01*
X13690476Y-3461904D01*
X13595238Y-3414285D01*
X13500000Y-3319047D01*
X13452380Y-3176190D01*
X13452380Y-3080952D01*
X13500000Y-2938095D01*
X13547619Y-2890476D01*
X14452380Y-2461904D02*
X13452380Y-2461904D01*
X14452380Y-1890476D01*
X13452380Y-1890476D01*
X13452380Y-1509523D02*
X13452380Y-842857D01*
X14452380Y-1271428D01*
G04 #@! TO.C,CN8*
X6357142Y-3690476D02*
X6404761Y-3738095D01*
X6452380Y-3880952D01*
X6452380Y-3976190D01*
X6404761Y-4119047D01*
X6309523Y-4214285D01*
X6214285Y-4261904D01*
X6023809Y-4309523D01*
X5880952Y-4309523D01*
X5690476Y-4261904D01*
X5595238Y-4214285D01*
X5500000Y-4119047D01*
X5452380Y-3976190D01*
X5452380Y-3880952D01*
X5500000Y-3738095D01*
X5547619Y-3690476D01*
X6452380Y-3261904D02*
X5452380Y-3261904D01*
X6452380Y-2690476D01*
X5452380Y-2690476D01*
X5880952Y-2071428D02*
X5833333Y-2166666D01*
X5785714Y-2214285D01*
X5690476Y-2261904D01*
X5642857Y-2261904D01*
X5547619Y-2214285D01*
X5500000Y-2166666D01*
X5452380Y-2071428D01*
X5452380Y-1880952D01*
X5500000Y-1785714D01*
X5547619Y-1738095D01*
X5642857Y-1690476D01*
X5690476Y-1690476D01*
X5785714Y-1738095D01*
X5833333Y-1785714D01*
X5880952Y-1880952D01*
X5880952Y-2071428D01*
X5928571Y-2166666D01*
X5976190Y-2214285D01*
X6071428Y-2261904D01*
X6261904Y-2261904D01*
X6357142Y-2214285D01*
X6404761Y-2166666D01*
X6452380Y-2071428D01*
X6452380Y-1880952D01*
X6404761Y-1785714D01*
X6357142Y-1738095D01*
X6261904Y-1690476D01*
X6071428Y-1690476D01*
X5976190Y-1738095D01*
X5928571Y-1785714D01*
X5880952Y-1880952D01*
G04 #@! TD*
M02*
