G04 #@! TF.GenerationSoftware,KiCad,Pcbnew,(5.0.2)-1*
G04 #@! TF.CreationDate,2019-04-19T06:38:29+02:00*
G04 #@! TF.ProjectId,n2adr,6e326164-722e-46b6-9963-61645f706362,E5b8*
G04 #@! TF.SameCoordinates,PX3dfd240PY3473bc0*
G04 #@! TF.FileFunction,Paste,Top*
G04 #@! TF.FilePolarity,Positive*
%FSLAX46Y46*%
G04 Gerber Fmt 4.6, Leading zero omitted, Abs format (unit mm)*
G04 Created by KiCad (PCBNEW (5.0.2)-1) date 19/04/2019 06:38:29*
%MOMM*%
%LPD*%
G01*
G04 APERTURE LIST*
%ADD10C,0.150000*%
%ADD11R,1.500000X4.000000*%
%ADD12R,1.400000X4.000000*%
%ADD13R,2.500000X4.000000*%
%ADD14R,1.300000X3.000000*%
%ADD15R,3.500000X1.800000*%
%ADD16R,1.250000X1.200000*%
%ADD17R,1.200000X1.250000*%
%ADD18R,1.600000X1.600000*%
%ADD19R,2.500000X1.600000*%
%ADD20R,1.600000X2.500000*%
%ADD21R,1.800000X3.500000*%
%ADD22R,1.300000X1.300000*%
%ADD23R,1.300000X2.000000*%
%ADD24R,0.900000X1.200000*%
%ADD25C,1.300000*%
%ADD26C,0.100000*%
%ADD27C,2.500000*%
%ADD28C,1.500000*%
%ADD29C,1.000000*%
G04 APERTURE END LIST*
D10*
X39000000Y-50000000D02*
X58000000Y-50000000D01*
X39000000Y-48000000D02*
X39000000Y-50000000D01*
X31000000Y-48000000D02*
X39000000Y-48000000D01*
X31000000Y-50000000D02*
X31000000Y-48000000D01*
X25000000Y-50000000D02*
X31000000Y-50000000D01*
X25000000Y-48000000D02*
X25000000Y-50000000D01*
X17000000Y-48000000D02*
X25000000Y-48000000D01*
X17000000Y-50000000D02*
X17000000Y-48000000D01*
X0Y-50000000D02*
X17000000Y-50000000D01*
X58000000Y-48000000D02*
X58000000Y-50000000D01*
X70000000Y-48000000D02*
X58000000Y-48000000D01*
X70000000Y-50000000D02*
X70000000Y-48000000D01*
X100000000Y-50000000D02*
X70000000Y-50000000D01*
X0Y-50000000D02*
X0Y0D01*
X100000000Y0D02*
X100000000Y-50000000D01*
X0Y0D02*
X100000000Y0D01*
D11*
G04 #@! TO.C,CN6*
X34540000Y-2200000D03*
X29460000Y-2200000D03*
D12*
X32000000Y-2200000D03*
G04 #@! TD*
D13*
G04 #@! TO.C,CN3*
X32000000Y-8800000D03*
D14*
X32000000Y-3800000D03*
G04 #@! TD*
D15*
G04 #@! TO.C,L2*
X70400000Y-31500000D03*
X70400000Y-26500000D03*
G04 #@! TD*
D16*
G04 #@! TO.C,C1*
X73300000Y-5200000D03*
X73300000Y-7400000D03*
G04 #@! TD*
D17*
G04 #@! TO.C,C2*
X68700000Y-5100000D03*
X66500000Y-5100000D03*
G04 #@! TD*
G04 #@! TO.C,C4*
X54400000Y-7500000D03*
X52200000Y-7500000D03*
G04 #@! TD*
D18*
G04 #@! TO.C,C8*
X63600000Y-32000000D03*
X60400000Y-32000000D03*
G04 #@! TD*
G04 #@! TO.C,C9*
X68900000Y-34250000D03*
X72100000Y-34250000D03*
G04 #@! TD*
G04 #@! TO.C,C10*
X64400000Y-23800000D03*
X67600000Y-23800000D03*
G04 #@! TD*
D17*
G04 #@! TO.C,R2*
X94100000Y-34500000D03*
X91900000Y-34500000D03*
G04 #@! TD*
G04 #@! TO.C,R3*
X91900000Y-42000000D03*
X94100000Y-42000000D03*
G04 #@! TD*
G04 #@! TO.C,R6*
X94100000Y-39500000D03*
X91900000Y-39500000D03*
G04 #@! TD*
G04 #@! TO.C,R7*
X91900000Y-37000000D03*
X94100000Y-37000000D03*
G04 #@! TD*
D18*
G04 #@! TO.C,C21*
X94500000Y-13600000D03*
X94500000Y-16800000D03*
G04 #@! TD*
G04 #@! TO.C,C22*
X94500000Y-9600000D03*
X94500000Y-6400000D03*
G04 #@! TD*
G04 #@! TO.C,C23*
X81600000Y-4400000D03*
X78400000Y-4400000D03*
G04 #@! TD*
G04 #@! TO.C,C32*
X51350000Y-33750000D03*
X48150000Y-33750000D03*
G04 #@! TD*
G04 #@! TO.C,C33*
X32000000Y-20900000D03*
X32000000Y-24100000D03*
G04 #@! TD*
G04 #@! TO.C,C35*
X48100000Y-28250000D03*
X44900000Y-28250000D03*
G04 #@! TD*
G04 #@! TO.C,C36*
X38600000Y-26000000D03*
X35400000Y-26000000D03*
G04 #@! TD*
G04 #@! TO.C,C37*
X51350000Y-30750000D03*
X48150000Y-30750000D03*
G04 #@! TD*
G04 #@! TO.C,C38*
X32500000Y-35850000D03*
X32500000Y-32650000D03*
G04 #@! TD*
G04 #@! TO.C,C40*
X52250000Y-25150000D03*
X52250000Y-28350000D03*
G04 #@! TD*
G04 #@! TO.C,C41*
X39600000Y-30000000D03*
X36400000Y-30000000D03*
G04 #@! TD*
G04 #@! TO.C,C42*
X46400000Y-25250000D03*
X49600000Y-25250000D03*
G04 #@! TD*
G04 #@! TO.C,C43*
X35300000Y-37500000D03*
X38500000Y-37500000D03*
G04 #@! TD*
D19*
G04 #@! TO.C,L10*
X32000000Y-26900000D03*
X32000000Y-30100000D03*
G04 #@! TD*
D20*
G04 #@! TO.C,L13*
X35400000Y-34000000D03*
X38600000Y-34000000D03*
G04 #@! TD*
D21*
G04 #@! TO.C,L1*
X60300000Y-28400000D03*
X65300000Y-28400000D03*
G04 #@! TD*
D15*
G04 #@! TO.C,L5*
X90500000Y-15000000D03*
X90500000Y-10000000D03*
G04 #@! TD*
D21*
G04 #@! TO.C,L6*
X90000000Y-5000000D03*
X85000000Y-5000000D03*
G04 #@! TD*
D15*
G04 #@! TO.C,L9*
X56500000Y-32000000D03*
X56500000Y-27000000D03*
G04 #@! TD*
D19*
G04 #@! TO.C,L12*
X57000000Y-23600000D03*
X57000000Y-20400000D03*
G04 #@! TD*
D16*
G04 #@! TO.C,C50*
X51600000Y-40800000D03*
X51600000Y-43000000D03*
G04 #@! TD*
G04 #@! TO.C,C47*
X92000000Y-21400000D03*
X92000000Y-23600000D03*
G04 #@! TD*
G04 #@! TO.C,C48*
X95500000Y-26600000D03*
X95500000Y-24400000D03*
G04 #@! TD*
G04 #@! TO.C,C49*
X92000000Y-26900000D03*
X92000000Y-29100000D03*
G04 #@! TD*
G04 #@! TO.C,L4*
X95500000Y-31100000D03*
X95500000Y-28900000D03*
G04 #@! TD*
G04 #@! TO.C,L15*
X95500000Y-19900000D03*
X95500000Y-22100000D03*
G04 #@! TD*
G04 #@! TO.C,R1*
X94800000Y-47100000D03*
X94800000Y-44900000D03*
G04 #@! TD*
D22*
G04 #@! TO.C,RV1*
X90250000Y-44850000D03*
D23*
X84750000Y-46000000D03*
D22*
X90250000Y-47150000D03*
G04 #@! TD*
D24*
G04 #@! TO.C,D3*
X37150000Y-5400000D03*
X40450000Y-5400000D03*
G04 #@! TD*
D17*
G04 #@! TO.C,FB1*
X50800000Y-3700000D03*
X53000000Y-3700000D03*
G04 #@! TD*
D12*
G04 #@! TO.C,CN4*
X64250000Y-45750000D03*
D11*
X66790000Y-45750000D03*
X61710000Y-45750000D03*
G04 #@! TD*
D25*
G04 #@! TO.C,J1*
X31914214Y-40664214D03*
D26*
G36*
X33434494Y-41265255D02*
X32515255Y-42184494D01*
X30393934Y-40063173D01*
X31313173Y-39143934D01*
X33434494Y-41265255D01*
X33434494Y-41265255D01*
G37*
D27*
X28378680Y-37128680D03*
D26*
G36*
X30676777Y-37659010D02*
X28909010Y-39426777D01*
X26080583Y-36598350D01*
X27848350Y-34830583D01*
X30676777Y-37659010D01*
X30676777Y-37659010D01*
G37*
G04 #@! TD*
D13*
G04 #@! TO.C,J2*
X21000000Y-38000000D03*
D14*
X21000000Y-43000000D03*
G04 #@! TD*
D11*
G04 #@! TO.C,J3*
X32460000Y-46000000D03*
X37540000Y-46000000D03*
D12*
X35000000Y-46000000D03*
G04 #@! TD*
G04 #@! TO.C,J4*
X21000000Y-45750000D03*
D11*
X23540000Y-45750000D03*
X18460000Y-45750000D03*
G04 #@! TD*
D12*
G04 #@! TO.C,CN7*
X22000000Y-2200000D03*
D11*
X19460000Y-2200000D03*
X24540000Y-2200000D03*
G04 #@! TD*
D12*
G04 #@! TO.C,CN8*
X11600000Y-2200000D03*
D11*
X9060000Y-2200000D03*
X14140000Y-2200000D03*
G04 #@! TD*
D28*
G04 #@! TO.C,CN5*
X18901974Y-8098026D03*
D26*
G36*
X19078751Y-6860589D02*
X20139411Y-7921249D01*
X18725197Y-9335463D01*
X17664537Y-8274803D01*
X19078751Y-6860589D01*
X19078751Y-6860589D01*
G37*
D29*
X21002082Y-5997918D03*
D26*
G36*
X21355635Y-4937258D02*
X22062742Y-5644365D01*
X20648529Y-7058578D01*
X19941422Y-6351471D01*
X21355635Y-4937258D01*
X21355635Y-4937258D01*
G37*
G04 #@! TD*
M02*
